<?xml version="1.0" encoding="UTF-8"?>
<svg viewBox="0 0 200 228" xmlns="http://www.w3.org/2000/svg">
 <g transform="translate(-50,-36)">
  <path d="m182.82 262.88c-0.62636-0.62837-1.548-1.9363-2.0481-2.9065-0.87088-1.6895-1.0324-1.7494-3.823-1.4178-1.95 0.23169-3.2092 0.10021-3.807-0.39751-0.75067-0.62502-1.2214-0.39458-2.9497 1.4438-3.5875 3.8161-5.5803-0.64193-2.4836-5.556 0.7119-1.1297 1.5664-2.8462 1.899-3.8146 0.34514-1.005 1.3604-2.1398 2.3658-2.6443 2.1934-1.1006 1.3442-4.1046-1.1603-4.1046-2.0174 0-3.2332-0.59231-3.2332-1.5751 0-1.1774 3.1907-4.2935 4.3962-4.2935 0.53703 0 1.6457-0.52817 2.4638-1.1737 3.049-2.4061 6.8537-1.1569 8.9336 2.9332 1.5977 3.1419 1.9399 3.2284 5.368 1.3575 3.7341-2.0379 5.204-3.9739 5.5838-7.3542 0.57929-5.1561-1.4371-7.0233-10.951-10.141-6.6044-2.1641-8.9157-3.3859-10.912-5.7682-0.95418-1.1389-3.9368-3.1561-6.9851-4.7241-2.9259-1.505-6.376-3.6433-7.6667-4.7517-2.3468-2.0152-2.3468-2.0152-4.0232-0.25984-2.0677 2.1652-1.611 3.1967 2.2381 5.0549 5.0182 2.4226 5.9308 8.9435 1.6252 11.613-2.0171 1.2506-3.6481 5.6023-2.6643 7.1086 2.0374 3.1194-2.3776 4.6191-5.7541 1.9545-1.5413-1.2163-1.5413-1.2163-1.5413 1.9998 0 3.4705-2.3979 9.193-3.8522 9.193-1.1803 0-2.5825-2.4112-2.5825-4.441 0-3.9222-2.0593-4.2131-2.8715-0.40555-1.3744 6.4431-2.9806 8.1698-5.9928 6.4425-1.7934-1.0284-1.837-1.0237-2.7477 0.29343-4.5848 6.6309-6.0837 6.7976-8.0076 0.89071-1.1567-3.5513-2.443-4.2388-2.1375-1.1425 0.60231 6.104-4.2975 9.6662-7.7836 5.6589-2.3397-2.6896-2.34-2.6896-4.0948-1.769-0.9652 0.5064-2.2814 0.91998-2.9248 0.91906s-1.8953 0.85899-2.7819 1.9109c-2.1092 2.5025-4.7994 0.22451-4.4221-3.7445 0.2309-2.429-0.21458-2.8523-3.0018-2.8523-0.89549 0-2.3143-0.54146-3.1529-1.2032-1.1958-0.94364-1.7724-1.0702-2.6728-0.58686-3.5436 1.9026-4.7012-0.47404-2.1024-4.316 0.80433-1.1891 1.4624-2.3683 1.4624-2.6204 0-2.418 5.5544-3.8572 8.0684-2.0906 0.72002 0.50595 1.8973 0.83059 2.6163 0.72142 1.2231-0.18574 1.1943-0.25502-0.44776-1.0774-1.0458-0.5238-1.7637-1.3491-1.7767-2.0425-0.04096-2.1893-0.84874-2.7804-3.269-2.3922-2.4016 0.38527-2.7354-0.02199-1.6641-2.0302 2.019-3.7847 12.8-4.0362 15.174-0.35391 2.5408 3.9412 9.4891 1.3787 16.789-6.1915 6.6475-6.8941 6.5439-10.087-0.58381-17.998-13.951-15.482-13.323-32.914 1.1871-32.946 7.7551-0.01733 21.614-3.96 15.969-4.5431-6.163-0.63672-15.549-4.1634-19.011-7.143-4.285-3.688-7.8817-1.8073-4.9722 2.6 2.1929 3.3218 1.403 4.4014-3.2203 4.4014-1.8787 0-3.008-0.39537-4.3394-1.5193-1.7998-1.5193-1.7998-1.5193-1.7998 2.3092 0 7.7423-3.1233 11.505-6.9018 8.3157-1.7269-1.4578-1.7269-1.4578-1.4312 1.1736 0.97591 8.6862-4.7539 12.072-10.204 6.0297-0.95215-1.0555-1.034-1.0025-2.1939 1.4206-1.2049 2.517-1.2049 2.517-4.5684 2.5022-2.7501-0.01209-3.3636 0.16293-3.3636 0.95958 0 3.5183-6.9412 8.7781-8.2404 6.2442-2.5568-4.9867-5.1998-4.9867-7.2824 0-1.091 2.6124-2.6423 2.4495-5.1979-0.54578-2.467-2.8915-2.8024-5.8735-0.92923-8.2626 1.4469-1.8453-0.16388-2.5693-3.5493-1.5952-2.8788 0.8283-2.8791 0.82809-2.8791-2.1094 0-3.2404 2.2817-7.5165 4.6725-8.7569 3.2704-1.6967 2.3556-4.2611-1.8939-5.3093-1.9483-0.48057-2.0292-1.0812-0.30857-2.2903 1.6583-1.1653 6.2486-1.181 7.8908-0.02698 0.79863 0.56119 1.3958 0.66888 1.6271 0.29343 1.4118-2.2916 7.316 1.2338 7.316 4.3684 0 4.736 6.4963-0.96243 10.279-9.0162 1.2565-2.6756 3.2319-5.6267 4.9458-7.3891 1.9721-2.0279 3.6754-4.7146 5.5139-8.6975 3.1283-6.7772 3.0309-6.2673 1.1979-6.2673-2.261 0-1.7757-1.4257 1.3996-4.1118 3.3907-2.8683 2.2137-7.6226-1.8884-7.6275-4.6734-0.00554-6.8063-3.228-4.1963-6.3399 1.4571-1.7373 1.4571-1.7373-1.2583-2.4232-6.3132-1.5948-6.9863-2.675-4.6061-7.3917 0.7933-1.572 1.3856-2.9036 1.3162-2.9591s-1.0475-0.5672-2.1736-1.1372-2.912-1.7919-3.9689-2.7155-2.2916-1.6792-2.7441-1.6792c-2.1531 0-1.2819-2.4839 2.1894-6.2426 1.1493-1.2444 1.482-1.9765 1.0266-2.2589-1.087-0.67394-4.4439 0.21073-5.5804 1.4706-3.2014 3.549-5.2547-1.8766-2.6492-7.0003 1.1428-2.2472 1.1428-2.2472-1.2066-3.31-6.0717-2.7468-6.6892-7.2761-0.9983-7.3227 3.4192-0.02799 6.8235-3.7795 5.1-5.6201-1.3285-1.4187-1.3285-1.4187-2.8614 0.05462-1.926 1.8512-1.9983 1.8474-6.3458-0.33211-5.1699-2.5918-7.1575-5.8237-3.5816-5.8237 1.3223 0 2.3661-0.61983 4.0703-2.4172 1.8012-1.8996 2.5791-2.3404 3.6326-2.0586 4.2579 1.139 4.3613 1.1317 2.3446-0.1647-1.0564-0.67914-2.0717-1.6294-2.2562-2.1117-0.24508-0.64072-1.2639-0.87693-3.7826-0.87693-5.541 0-2.9883-4.138 3.7684-6.1086 4.6393-1.353 5.3724-1.2159 7.4649 1.3963 2.484 3.101 3.2206 2.4362 1.3669-1.2337-1.2486-2.472-1.9581-3.1449-4.3814-4.1552-3.575-1.4905-3.6026-1.9732-0.19878-3.4838 5.0345-2.2342 16.026 0.87495 16.026 4.5332 0 1.3507 0.02209 1.3554 1.7512 0.36829 1.5066-0.86006 1.7517-1.3433 1.7549-3.4592 0.00523-3.4754 0.97507-3.7129 3.6062-0.88306 4.5109 4.8515 3.121 12.287-2.8959 15.493-3.5429 1.8874-2.8163 5.4834 2.1527 10.653 2.8468 2.9619 4.7527 5.6561 6.4943 9.1804 9.0829 18.38 13.054 20.68 28.377 16.433 4.9015-1.3586 6.0216-1.9611 4.3724-2.3517-2.0823-0.49314-2.0934-2.0786-0.03119-4.4349 1.0979-1.2545 1.801-2.7019 1.801-3.7078 0-1.4803 0.80458-3.7355 2.3775-6.6639 0.92283-1.7181 0.67014-1.7009-3.1061 0.21148-14.424 7.3048-27.35 3.5446-27.35-7.9562 0-1.5095-0.5382-3.7599-1.2515-5.2327-3.0492-6.2965 2.1964-8.6222 7.6685-3.3999 2.3273 2.2211 2.3574 2.3037 2.3574 6.4753 0 7.6186 3.4178 8.8474 14.218 5.112 3.155-1.0912 5.8563-2.1043 6.003-2.2515 0.40535-0.40666-1.9559-5.4774-2.9272-6.2862-1.2159-1.0123-2.5324-5.0474-2.9248-8.9642-0.41076-4.0999 0.23679-4.5766 8.6151-6.3424 5.3013-1.1173 5.4328-1.1868 8.3114-4.3911 3.3197-3.6955 4.7867-4.2956 15.029-6.1483 4.3608-0.78884 7.4998-1.7606 10.369-3.21 6.1146-3.0892 8.825-0.10769 5.5964 6.156-0.88708 1.721-0.88708 1.721 2.3039 3.5277 4.2518 2.4073 7.0864 5.6669 8.2002 9.4296 1.2234 4.1328 2.2548 5.5685 5.0157 6.9815 4.1983 2.1487-0.69812 6.6229-8.6628 7.9158-2.5121 0.40778-2.5121 0.40778-2.1521 5.4868 0.90673 12.793 3.1184 16.868 9.5896 17.669 6.3194 0.78297-0.85414 7.5853-8.677 8.2281-5.2784 0.4337-7.6948 11.898-5.5573 26.365 0.79819 5.4022-11.835-0.2713-16.205-7.2771-0.80648-1.2931-1.0986-1.478-1.1002-0.69641-0.0012 0.58529 1.9482 3.1182 4.3319 5.6287 5.1729 5.4479 7.105 10.309 4.6462 11.689-0.86459 0.48541-0.81278 0.74576 0.50219 2.5233 0.80643 1.0901 2.2202 3.3995 3.1418 5.132s4.6696 6.354 8.3289 10.27 7.0759 7.7802 7.5924 8.5872c11.177 17.464 38.202 21.2 45.802 6.3321 4.4036-8.6147-0.14457-12.724-14.587-13.178-18.542-0.58367-27.424-3.3346-33.972-10.522-15.332-16.83-4.3755-45.593 19.614-51.493 26.996-6.6394 36.104-14.202 36.165-30.025 0.05342-13.905-17.738-23.53-23.354-12.634-3.0324 5.8831 6.7184 12.929 11.397 8.2352 2.4696-2.4776 1.1555-5.2817-2.4752-5.2817-2.4587 0-3.4256-1.1648-2.1983-2.6483 1.1423-1.3808 6.4965-1.1562 8.4086 0.35272 7.8614 6.2038 1.3492 16.948-10.293 16.981-4.8493 0.01385-4.8493 0.01385-1.047 1.9073 9.9241 4.9419 8.5865 14.49-2.5253 18.025-3.0789 0.97968-3.2604 0.43401-0.77405-2.327 3.8445-4.2692 2.1843-8.2505-4.4529-10.678-1.971-0.721-4.7184-2.1798-6.1053-3.2419-2.8954-2.2172-3.2915-1.6906-0.8439 1.1219 6.2007 7.125 6.1526 15.835-0.10331 18.684-5.474 2.4932-12.836-0.06824-13.161-4.5794-0.21829-3.0268 1.6527-3.5146 3.9737-1.036 2.7716 2.9598 7.2873 2.4234 6.9113-0.82107-0.13661-1.179-0.86324-1.8537-3.2586-3.0256-1.6955-0.82954-3.3754-1.8018-3.733-2.1605-0.47688-0.47842-1.2119-0.35017-2.7582 0.48125-5.062 2.7218-10.607-1.1577-10.607-7.4209 0-3.7817 0.48972-3.9358 3.5868-1.1287 5.1792 4.6942 8.1125 1.2975 8.1125-9.3942 0-30.422 52.367-32.772 54.25-2.4342 1.2925 20.815-10.829 32.519-40.211 38.829-4.49 0.96421-12.808 5.5093-15.446 8.4398-1.3395 1.4881-1.1563 1.5176 1.7741 0.28605 1.8173-0.76377 3.3762-0.87559 7.8859-0.56569 6.7415 0.46326 9.4058-0.2585 15.231-4.1259 5.8644-3.8937 7.5374-4.4174 15.251-4.774 10.304-0.47628 9.5699 1.8626-1.6048 5.1111-4.122 1.1983-6.1211 2.1171-7.4843 3.44-3.4309 3.3295-9.0931 5.817-14.226 6.2495-11.319 0.95387-17.586 2.8142-20.045 5.9496-1.8909 2.4116-1.4631 2.7525 1.2203 0.97256 2.4087-1.5977 2.5872-1.6227 11.846-1.6589 11.794-0.04603 13.042-0.46361 19.052-6.3746 5.2279-5.1419 5.5216-5.306 11.018-6.1558 2.3601-0.3649 5.222-1.0537 6.3598-1.5306 2.9118-1.2205 3.6808-1.0993 3.6808 0.58042 0 2.3518-3.3134 5.1437-7.6252 6.4251-3.9767 1.1818-4.7628 1.8263-10.865 8.9063-4.8016 5.571-9.6484 7.3684-19.419 7.2017-10.685-0.18232-14.81 2.6682-14.712 10.166 0.02424 1.8416 0.07877 1.7898 1.0237-0.97176 2.1286-6.2211 4.751-6.9524 21.179-5.9061 8.2682 0.52657 10.441-0.48462 13.472-6.2683 3.679-7.0219 8.146-10.084 14.199-9.7329 4.4209 0.25638 4.4841 2.5365 0.11546 4.1624-4.5278 1.6852-5.9422 3.4533-8.1284 10.161-2.1741 6.6703-8.4769 9.3029-20.86 8.7132-8.5149-0.40551-8.5149-0.40551-10.237 1.097-4.7684 4.1606 3.4472 8.4488 14.67 7.6573 5.7689-0.40682 10.007 0.26889 13.856 2.2094 2.8523 1.4378 2.8019 1.4607 2.8019-1.2722 0-3.4978 1.3454-6.1412 5.2649-10.345 1.9303-2.0701 3.5096-4.0091 3.5096-4.3089 0-0.9173 3.5786-4.6938 4.4478-4.6938 3.1402 0 0.34214 10.903-3.8402 14.964-2.7927 2.7116-2.8076 3.6092-0.18456 11.093 2.9179 8.3244 0.51231 19.672-5.0258 23.707-2.1769 1.5863-2.1769 1.5863-0.83446 3.5804 2.4735 3.6742 1.1008 8.6936-1.6815 6.1485-6.0988-5.5789-13.913-1.8932-8.6754 4.0917 2.2907 2.6173 2.2482 2.7306-1.0237 2.73-2.7924-4.7e-4 -9.2066-2.5412-11.374-4.5052-0.90698-0.82201-1.0681-0.71139-1.9107 1.3116-1.0309 2.4752-0.82468 3.7241 0.86871 5.2616 1.6397 1.4887 1.4376 2.0408-0.74614 2.0382-2.9377-0.00338-5.5816-1.9621-6.9359-5.1383-1.6564-3.8848-3.0921-5.2206-8.1146-7.5498-2.4062-1.1159-4.9727-2.5923-5.7034-3.281-1.484-1.3986-1.757-0.78495-0.43251 0.97189 0.52759 0.69979 0.85885 2.4616 0.85885 4.568 0 8.2727 11.897 18.004 18.134 14.833 5.1942-2.6406 10.529-0.45952 10.529 4.3045 0 2.6892 1.0015 4.8363 3.467 7.4326 1.9214 2.0234 3.5526 5.1623 3.5526 6.8364 0 0.78062-1.6418 0.58811-3.5858-0.42046-1.7728-0.91974-1.7728-0.91974-1.36 2.4941 0.47713 3.9457 1.1269 5.4679 2.3341 5.4679 1.2421 0 1.0515 1.6148-0.2746 2.3268-0.62231 0.33412-2.0278 0.6075-3.1234 0.6075-1.5669 0-2.1368 0.31896-2.6708 1.4948-0.92593 2.0388-0.87138 2.4542 0.59316 4.5176 1.4466 2.0382 0.12215 3.9642-2.7261 3.9642-0.98239 0-1.409 0.42405-1.6518 1.6418-0.57566 2.8876-4.746 7.0148-6.1981 6.134-1.5485-0.9392-1.8103-0.92271-1.8103 0.11399 0 3.4248-2.9386 4.139-5.522 1.3421-1.549-1.677-2.7417-2.5442-2.976-2.1637-0.2151 0.34916 0.02955 1.1011 0.54366 1.6711 1.565 1.7349 1.0732 3.1942-2.1547 6.3923-3.6394 3.6058-4.5151 3.8093-4.5151 1.0489 0-2.5855-1.7402-4.6194-2.4065-2.8126-0.23889 0.64788-0.96734 1.5525-1.6188 2.0102s-1.4535 1.5424-1.7824 2.4102c-0.71703 1.892-2.4686 2.0778-4.1056 0.43543zm-40.511-184.16c0.64032-1.9041 0.6381-1.9073-1.3486-1.9073s-1.99 0-0.70078 1.9834c0.70909 1.0909 1.316 1.9492 1.3486 1.9073s0.34802-0.93441 0.70078-1.9834zm5.382-1.027c0.62186-0.75171 0.45098-0.88028-1.1699-0.88028s-1.7918 0.12857-1.1699 0.88028c0.40051 0.48416 0.92699 0.88028 1.1699 0.88028s0.76941-0.39612 1.1699-0.88028zm2.3399-7.2051c0-2.0662-1.9107-3.1226-3.2924-1.8203-1.3118 1.2364-1.4795 1.2619-2.377 0.36154s-1.0159-0.89964-1.6788 0.00983c-0.59789 0.82031-0.96 0.8657-2.2397 0.28075-1.2606-0.5762-1.5265-0.55057-1.5265 0.14708 0 0.65597 1.1444 0.88859 5.1184 1.0405 2.8152 0.10757 5.3159 0.2499 5.5572 0.31627s0.43872-0.08464 0.43872-0.3356z" fill="#ff0"/>
  <path d="m182.82 262.88c-0.62636-0.62838-1.548-1.9363-2.0481-2.9066-0.87088-1.6895-1.0324-1.7494-3.823-1.4178-1.95 0.23169-3.2092 0.1002-3.807-0.39752-0.75067-0.62502-1.2214-0.39458-2.9497 1.4438-3.5875 3.8161-5.5803-0.64192-2.4836-5.556 0.7119-1.1297 1.5664-2.8462 1.899-3.8146 0.34514-1.005 1.3604-2.1398 2.3658-2.6443 2.1934-1.1006 1.3442-4.1046-1.1603-4.1046-2.0173 0-3.2332-0.59232-3.2332-1.5751 0-1.1774 3.1907-4.2935 4.3962-4.2935 0.53703 0 1.6457-0.52817 2.4638-1.1737 3.049-2.4061 6.8537-1.1569 8.9336 2.9332 1.5977 3.1419 1.9399 3.2284 5.368 1.3575 3.7341-2.0379 5.204-3.9739 5.5838-7.3542 0.5793-5.1561-1.4371-7.0233-10.951-10.141-6.6044-2.1641-8.9157-3.3859-10.912-5.7682-0.95418-1.1389-3.9368-3.1561-6.9851-4.7241-2.926-1.5051-6.376-3.6433-7.6667-4.7517-2.3468-2.0152-2.3468-2.0152-4.0232-0.25984-2.0677 2.1652-1.611 3.1967 2.2381 5.0549 5.0182 2.4226 5.9308 8.9435 1.6252 11.613-2.0171 1.2507-3.6481 5.6023-2.6643 7.1086 2.0374 3.1194-2.3776 4.6191-5.7541 1.9545-1.5413-1.2163-1.5413-1.2163-1.5413 1.9998 0 3.4705-2.3979 9.193-3.8522 9.193-1.1803 0-2.5825-2.4112-2.5825-4.441 0-3.9223-2.0593-4.2131-2.8715-0.40556-1.3744 6.4431-2.9806 8.1698-5.9928 6.4425-1.7934-1.0284-1.837-1.0237-2.7477 0.29343-4.5848 6.6309-6.0837 6.7976-8.0076 0.89071-1.1567-3.5512-2.443-4.2388-2.1375-1.1425 0.60231 6.104-4.2975 9.6662-7.7836 5.6589-2.3397-2.6896-2.34-2.6896-4.0948-1.769-0.9652 0.50641-2.2814 0.91999-2.9248 0.91906s-1.8953 0.85899-2.7819 1.9109c-2.1092 2.5025-4.7994 0.2245-4.4221-3.7445 0.2309-2.429-0.21459-2.8523-3.0018-2.8523-0.89549 0-2.3143-0.54147-3.1529-1.2032-1.1958-0.94364-1.7724-1.0702-2.6728-0.58686-3.5436 1.9026-4.7012-0.47404-2.1024-4.316 0.80433-1.1891 1.4624-2.3683 1.4624-2.6204 0-2.418 5.5544-3.8572 8.0684-2.0906 0.72002 0.50595 1.8973 0.83058 2.6163 0.72141 1.2231-0.18573 1.1943-0.25502-0.44776-1.0774-1.0458-0.5238-1.7637-1.3491-1.7767-2.0425-0.04096-2.1893-0.84874-2.7804-3.269-2.3922-2.4016 0.38527-2.7354-0.02199-1.6641-2.0302 2.019-3.7847 12.8-4.0362 15.174-0.35392 2.5408 3.9412 9.4891 1.3787 16.789-6.1915 6.6475-6.8941 6.5439-10.087-0.58381-17.998-13.951-15.482-13.323-32.914 1.1871-32.946 7.7551-0.01732 21.614-3.96 15.969-4.5431-6.163-0.63672-15.549-4.1634-19.011-7.143-4.285-3.688-7.8817-1.8073-4.9722 2.6 2.1929 3.3218 1.403 4.4014-3.2203 4.4014-1.8788 0-3.008-0.39536-4.3394-1.5193-1.7998-1.5193-1.7998-1.5193-1.7998 2.3092 0 7.7423-3.1233 11.505-6.9018 8.3157-1.7269-1.4578-1.7269-1.4578-1.4312 1.1736 0.97591 8.6862-4.7539 12.072-10.204 6.0297-0.95216-1.0555-1.034-1.0025-2.1939 1.4206-1.2049 2.517-1.2049 2.517-4.5684 2.5022-2.7501-0.01208-3.3636 0.16293-3.3636 0.95958 0 3.5184-6.9412 8.7781-8.2404 6.2442-2.5568-4.9867-5.1998-4.9867-7.2824 0-1.091 2.6124-2.6423 2.4495-5.1979-0.54578-2.467-2.8915-2.8024-5.8735-0.92923-8.2626 1.4469-1.8453-0.16388-2.5692-3.5493-1.5952-2.8788 0.8283-2.8791 0.82808-2.8791-2.1094 0-3.2404 2.2817-7.5165 4.6725-8.7569 3.2704-1.6967 2.3556-4.2611-1.8939-5.3093-1.9483-0.48058-2.0292-1.0812-0.30857-2.2903 1.6583-1.1653 6.2486-1.181 7.8908-0.02699 0.79863 0.56119 1.3958 0.66888 1.6271 0.29343 1.4118-2.2916 7.316 1.2338 7.316 4.3684 0 4.736 6.4963-0.96243 10.279-9.0162 1.2566-2.6756 3.2319-5.6267 4.9458-7.389 1.9721-2.0279 3.6754-4.7146 5.5139-8.6975 3.1283-6.7772 3.0309-6.2673 1.1979-6.2673-2.261 0-1.7757-1.4257 1.3996-4.1118 3.3907-2.8683 2.2137-7.6226-1.8884-7.6275-4.6734-0.00553-6.8063-3.228-4.1963-6.3399 1.4571-1.7373 1.4571-1.7373-1.2583-2.4232-6.3132-1.5948-6.9863-2.675-4.6061-7.3917 0.7933-1.572 1.3856-2.9036 1.3162-2.9591s-1.0475-0.5672-2.1736-1.1372-2.912-1.7919-3.9689-2.7155-2.2916-1.6792-2.7441-1.6792c-2.1531 0-1.2819-2.4839 2.1894-6.2426 1.1493-1.2444 1.482-1.9765 1.0266-2.2589-1.087-0.67394-4.4439 0.21072-5.5804 1.4706-3.2014 3.549-5.2547-1.8766-2.6492-7.0003 1.1428-2.2472 1.1428-2.2472-1.2066-3.31-6.0717-2.7468-6.6892-7.2761-0.9983-7.3227 3.4192-0.028 6.8235-3.7795 5.1-5.6201-1.3285-1.4187-1.3285-1.4187-2.8614 0.05462-1.926 1.8512-1.9983 1.8474-6.3458-0.33211-5.1699-2.5918-7.1575-5.8237-3.5816-5.8237 1.3223 0 2.3661-0.61983 4.0703-2.4172 1.8012-1.8996 2.5791-2.3404 3.6326-2.0586 4.2579 1.139 4.3613 1.1317 2.3446-0.1647-1.0564-0.67914-2.0717-1.6294-2.2562-2.1117-0.24508-0.64072-1.2639-0.87693-3.7826-0.87693-5.541 0-2.9883-4.138 3.7684-6.1086 4.6393-1.353 5.3724-1.2159 7.4649 1.3963 2.484 3.101 3.2206 2.4362 1.3669-1.2337-1.2486-2.472-1.9581-3.1449-4.3814-4.1552-3.575-1.4905-3.6026-1.9732-0.19878-3.4838 5.0345-2.2342 16.026 0.87495 16.026 4.5332 0 1.3507 0.02209 1.3554 1.7512 0.36829 1.5066-0.86006 1.7517-1.3433 1.7549-3.4592 0.00523-3.4754 0.97507-3.7129 3.6062-0.88306 4.5109 4.8515 3.121 12.287-2.8959 15.493-3.5429 1.8874-2.8163 5.4834 2.1527 10.653 2.8468 2.9619 4.7527 5.6561 6.4943 9.1804 9.0829 18.38 13.054 20.68 28.377 16.433 4.9015-1.3586 6.0216-1.9611 4.3724-2.3517-2.0823-0.49315-2.0934-2.0786-0.0312-4.4349 1.0979-1.2545 1.801-2.7019 1.801-3.7078 0-1.4803 0.80458-3.7355 2.3775-6.6639 0.92282-1.7181 0.67014-1.7009-3.1061 0.21148-14.424 7.3048-27.35 3.5446-27.35-7.9562 0-1.5095-0.53819-3.7599-1.2514-5.2327-3.0492-6.2965 2.1964-8.6222 7.6685-3.3999 2.3273 2.2211 2.3574 2.3037 2.3574 6.4753 0 7.6186 3.4178 8.8475 14.218 5.112 3.155-1.0912 5.8563-2.1043 6.003-2.2515 0.40536-0.40667-1.9559-5.4774-2.9272-6.2862-1.2159-1.0123-2.5324-5.0474-2.9248-8.9642-0.41076-4.0999 0.23679-4.5766 8.6151-6.3424 5.3013-1.1173 5.4328-1.1868 8.3114-4.3911 3.3197-3.6955 4.7867-4.2956 15.029-6.1483 4.3608-0.78884 7.4998-1.7606 10.369-3.21 6.1146-3.0892 8.825-0.1077 5.5964 6.156-0.88707 1.721-0.88707 1.721 2.3039 3.5277 4.2518 2.4073 7.0864 5.6669 8.2002 9.4296 1.2234 4.1328 2.2548 5.5685 5.0157 6.9815 4.1983 2.1487-0.69812 6.6229-8.6628 7.9158-2.5121 0.40778-2.5121 0.40778-2.1521 5.4868 0.90672 12.793 3.1184 16.868 9.5896 17.669 6.3194 0.78297-0.85414 7.5853-8.677 8.2281-5.2784 0.43369-7.6948 11.898-5.5573 26.365 0.79819 5.4022-11.835-0.2713-16.205-7.2771-0.80648-1.2931-1.0986-1.478-1.1002-0.69641-0.00121 0.58528 1.9482 3.1182 4.3319 5.6287 5.1729 5.4479 7.105 10.309 4.6462 11.689-0.86459 0.48542-0.81278 0.74576 0.50218 2.5233 0.80644 1.0901 2.2203 3.3995 3.1418 5.132s4.6696 6.354 8.3289 10.27 7.0759 7.7802 7.5924 8.5872c11.177 17.464 38.202 21.2 45.802 6.3321 4.4036-8.6147-0.14457-12.724-14.587-13.178-18.542-0.58367-27.424-3.3346-33.972-10.522-15.332-16.83-4.3755-45.593 19.614-51.493 26.996-6.6394 36.104-14.202 36.165-30.025 0.05342-13.905-17.738-23.53-23.354-12.634-3.0324 5.8831 6.7184 12.929 11.397 8.2352 2.4696-2.4776 1.1555-5.2817-2.4752-5.2817-2.4587 0-3.4256-1.1648-2.1983-2.6483 1.1423-1.3808 6.4965-1.1562 8.4086 0.35272 7.8614 6.2038 1.3492 16.948-10.293 16.981-4.8493 0.01385-4.8493 0.01385-1.047 1.9073 9.9241 4.9419 8.5865 14.49-2.5253 18.025-3.0789 0.97968-3.2604 0.43401-0.77405-2.327 3.8445-4.2692 2.1843-8.2505-4.4529-10.678-1.9711-0.721-4.7184-2.1798-6.1053-3.2419-2.8954-2.2172-3.2915-1.6906-0.84391 1.1219 6.2007 7.125 6.1526 15.835-0.1033 18.684-5.474 2.4932-12.836-0.06824-13.161-4.5794-0.21828-3.0268 1.6527-3.5146 3.9738-1.036 2.7716 2.9598 7.2873 2.4234 6.9113-0.82107-0.13661-1.179-0.86325-1.8537-3.2586-3.0256-1.6955-0.82954-3.3754-1.8018-3.733-2.1605-0.47688-0.47842-1.2119-0.35017-2.7582 0.48126-5.062 2.7218-10.607-1.1577-10.607-7.4209 0-3.7817 0.48972-3.9358 3.5868-1.1287 5.1792 4.6942 8.1125 1.2975 8.1125-9.3942 0-30.422 52.367-32.772 54.25-2.4342 1.2925 20.815-10.829 32.519-40.211 38.829-4.49 0.96421-12.808 5.5093-15.446 8.4398-1.3395 1.4881-1.1563 1.5176 1.7741 0.28606 1.8173-0.76377 3.3762-0.8756 7.8859-0.5657 6.7415 0.46326 9.4058-0.2585 15.231-4.1259 5.8644-3.8937 7.5374-4.4174 15.251-4.7739 10.304-0.47629 9.5699 1.8626-1.6048 5.1111-4.122 1.1983-6.1211 2.1171-7.4843 3.44-3.4309 3.3295-9.0931 5.817-14.226 6.2495-13.113 1.1051-18.8 3.1306-21.051 7.497-0.83139 1.6129-0.83139 1.6129 1.8645-0.29204s2.6959-1.905 12.152-1.9416c11.857-0.046 13.093-0.45826 19.108-6.3746 5.2279-5.1419 5.5216-5.3059 11.018-6.1558 2.3601-0.3649 5.222-1.0537 6.3598-1.5306 2.9118-1.2206 3.6808-1.0993 3.6808 0.58041 0 2.3518-3.3134 5.1437-7.6252 6.4251-3.9767 1.1818-4.7628 1.8262-10.865 8.9062-4.8016 5.571-9.6484 7.3684-19.419 7.2017-10.685-0.18232-14.81 2.6682-14.712 10.166 0.02425 1.8416 0.07878 1.7898 1.0237-0.97176 2.1286-6.2211 4.751-6.9523 21.179-5.9061 8.2682 0.52658 10.441-0.48462 13.472-6.2683 3.679-7.0219 8.146-10.084 14.199-9.7329 4.4209 0.25637 4.4841 2.5364 0.11546 4.1624-4.5278 1.6852-5.9422 3.4533-8.1284 10.161-2.1741 6.6703-8.4769 9.3029-20.86 8.7132-8.5149-0.40551-8.5149-0.40551-10.237 1.097-4.7684 4.1606 3.4472 8.4488 14.67 7.6573 5.7689-0.40682 10.007 0.2689 13.856 2.2094 2.8523 1.4378 2.8019 1.4607 2.8019-1.2722 0-3.4978 1.3454-6.1412 5.2649-10.345 1.9303-2.0702 3.5096-4.0091 3.5096-4.3089 0-0.91731 3.5786-4.6938 4.4478-4.6938 3.1402 0 0.34213 10.903-3.8402 14.964-2.7927 2.7116-2.8076 3.6092-0.18457 11.093 2.9179 8.3244 0.51232 19.672-5.0258 23.707-2.1769 1.5863-2.1769 1.5863-0.83446 3.5804 2.4735 3.6742 1.1007 8.6936-1.6815 6.1485-6.0988-5.5789-13.913-1.8932-8.6754 4.0917 2.2907 2.6173 2.2482 2.7306-1.0237 2.73-2.7924-4.7e-4 -9.2066-2.5412-11.374-4.5052-0.90697-0.822-1.0681-0.71138-1.9106 1.3116-1.0309 2.4752-0.82468 3.7241 0.86871 5.2616 1.6397 1.4887 1.4376 2.0408-0.74614 2.0382-2.9377-0.00339-5.5816-1.9621-6.9359-5.1383-1.6564-3.8848-3.0921-5.2206-8.1146-7.5498-2.4062-1.1159-4.9727-2.5923-5.7034-3.281-1.484-1.3986-1.757-0.78495-0.43251 0.97189 0.52759 0.69979 0.85885 2.4616 0.85885 4.568 0 8.2728 11.897 18.004 18.134 14.833 5.1942-2.6406 10.529-0.45952 10.529 4.3045 0 2.6892 1.0015 4.8363 3.467 7.4326 1.9214 2.0234 3.5526 5.1623 3.5526 6.8364 0 0.78062-1.6418 0.58812-3.5858-0.42045-1.7728-0.91975-1.7728-0.91975-1.36 2.4941 0.47713 3.9457 1.1269 5.4679 2.3341 5.4679 1.2421 0 1.0515 1.6148-0.2746 2.3268-0.62231 0.33413-2.0278 0.6075-3.1234 0.6075-1.5669 0-2.1368 0.31896-2.6708 1.4948-0.92593 2.0388-0.87138 2.4542 0.59316 4.5176 1.4466 2.0382 0.12215 3.9642-2.7261 3.9642-0.9824 0-1.409 0.42406-1.6518 1.6418-0.57565 2.8876-4.746 7.0148-6.1981 6.134-1.5485-0.93919-1.8103-0.92271-1.8103 0.11399 0 3.4248-2.9386 4.139-5.522 1.3421-1.549-1.677-2.7417-2.5442-2.976-2.1637-0.21511 0.34916 0.02955 1.1011 0.54366 1.6711 1.565 1.7349 1.0732 3.1942-2.1547 6.3923-3.6394 3.6058-4.5151 3.8093-4.5151 1.0489 0-2.5855-1.7402-4.6194-2.4065-2.8126-0.23889 0.64787-0.96734 1.5525-1.6188 2.0102s-1.4535 1.5424-1.7824 2.4102c-0.71703 1.892-2.4686 2.0778-4.1056 0.43543zm3.2768-4.8637c-2.2079-1.4095-4.3504-0.06835-3.2474 2.0328 1.165 2.219 1.9166 2.2909 2.9519 0.2824 0.71003-1.3775 0.78947-1.9998 0.2955-2.3152zm10.146 0.1376c1.2496-1.7606 1.2496-1.7606-0.7868-1.7606-2.0199 0-2.031 0.01428-1.374 1.7606 0.36433 0.96831 0.71839 1.7606 0.78681 1.7606s0.68672-0.79226 1.374-1.7606zm-23.848-2.3474c0.34691 0 0.13451-0.55011-0.472-1.2225-1.1028-1.2225-1.1028-1.2225-2.4305 0.32615-2.1767 2.5387-1.8223 4.3524 0.47201 2.4156 0.98987-0.83561 2.0836-1.5193 2.4305-1.5193zm16.426-1.2859c-0.38673-1.9399 1.3295-5.0612 2.2662-4.1215 0.38962 0.39088 0.36458 0.9992-0.07504 1.8233-0.91626 1.7176 0.22256 4.0016 1.4752 2.9587 0.51352-0.42756 1.781-0.57495 3.2474-0.37763 1.7766 0.23905 2.2337 0.1517 1.7493-0.33429-1.5594-1.5644 0.08911-5.118 2.3742-5.118 0.60156 0 1.3203 0.59419 1.5971 1.3204 1.3192 3.4607 2.8527 3.7637 4.1136 0.8127 1.2697-2.9717 1.5299-3.1369 2.9335-1.8626 1.0814 0.98181 1.1726 0.65258 1.3345-4.8187 0.05016-1.6945 0.29062-3.081 0.53436-3.081 0.81546 0 1.1878 3.9202 0.58157 6.1229-0.53996 1.9619-0.50695 2.1008 0.33321 1.4018 1.2009-0.99909 2.5062-4.1378 2.5062-6.0261 0-1.3484 0.12094-1.4181 1.4251-0.82198 2.1502 0.98285 3.7243 0.22991 2.4568-1.1752-2.387-2.6461-0.42791-8.3042 2.8752-8.3042 2.0474 0 2.0474 0 1.1877-1.6678-0.89474-1.7358-1.9659-10.656-1.2796-10.656 0.21557 0 1.3452 0.3996 2.5104 0.88799 3.0354 1.2724 2.9822 0.80606-0.32573-2.8585-2.0655-2.2882-3.038-3.914-3.2794-5.4827-1.0242-6.6561-2.9817-8.1608-7.637-5.8703-6.1858 3.0436-9.0143 2.1369-15.514-4.9732-4.8687-5.3263-4.8687-5.3263-5.9432-3.995-1.614 1.9996-1.9822 0.9153-0.80465-2.3699 1.3239-3.6935 1.0328-6.33-1.4699-13.314-1.9061-5.3192-1.9192-7.6642-0.02753-4.9464 3.2171 4.6222 6.4165 7.4 11.042 9.5872 5.1385 2.4296 6.9352 4.2045 8.6627 8.5573 0.54815 1.3812 1.514 2.789 2.1463 3.1285 1.4448 0.77572 1.9589 0.34919 0.77114-0.63975s-1.1345-1.9925 0.3832-6.3279c1.2866-3.6752 1.2866-3.6752 3.077-1.9687 3.7612 3.585 11.192 6.717 9.3896 3.9577-3.7836-5.7932 4.7839-10.805 11.109-6.499 2.9545 2.0114 2.5012-0.64532-0.67019-3.9278-2.0642-2.1366-2.0642-2.1366 8.9e-4 -2.8203 6.8508-2.2683 10.499-14.928 6.9718-24.19-2.3289-6.1146-2.3621-8.8794-0.1302-10.842 3.0919-2.7191 5.2495-6.557 5.2144-9.2754-0.03068-2.3792-0.03068-2.3792-1.0131-0.9121-0.54031 0.80692-2.4924 3.0653-4.338 5.0187-4.0447 4.281-5.1477 6.7223-5.1477 11.394 0 1.947-0.10732 3.54-0.23849 3.54s-1.5132-0.65417-3.0711-1.4537c-5.0045-2.5684-9.1439-3.314-16.023-2.8861-12.858 0.79994-21.015-5.1554-15.138-11.052 1.7976-1.8034 1.7976-1.8034 10.292-1.4581 13.032 0.52973 18.157-1.4926 20.638-8.1434 2.7382-7.342 4.2423-9.2441 8.3193-10.52 2.5336-0.79318 2.5336-0.79318 0.4862-0.82671-4.632-0.07584-9.0588 3.0625-11.112 7.8776-3.4798 8.1612-7.5839 9.4189-24.753 7.5858-7.1496-0.76335-13.438 6.059-10.621 11.523 0.92097 1.7867 0.91419 1.813-0.41875 1.6235-3.5376-0.50293-5.0372-8.4692-2.5878-13.747 2.3443-5.0508 4.2675-5.8459 13.676-5.6536 9.851 0.20131 14.792-1.4686 19-6.4213 6.9088-8.1308 6.8384-8.0712 11.058-9.357 4.0436-1.2322 8.4552-3.9638 5.1739-3.2036-0.80433 0.18635-3.3051 0.63111-5.5572 0.98836-5.279 0.83741-5.5652 1.0023-11.135 6.4134-6.1938 6.0175-8.4664 6.7622-19.004 6.2271-10.228-0.51934-17.536 4.0829-17.536 11.043 0 0.49488-0.26323 0.89979-0.58497 0.89979-1.0121 0-0.63589-6.1232 0.59713-9.7186 2.6078-7.6042 5.5873-8.9912 24.398-11.357 5.4318-0.68328 9.1959-2.3383 13.174-5.7925 2.0144-1.7491 3.7471-2.5686 7.6629-3.6243 6.2054-1.673 6.3821-2.0663 0.69608-1.5494-5.4888 0.49899-7.4769 1.1713-11.134 3.765-6.314 4.4785-9.8158 5.5844-16.383 5.1742-5.9008-0.36861-9.3804 0.2562-14.48 2.6002-6.4117 2.9468 2.6567-7.7175 9.5168-11.192 3.6952-1.8713 5.7793-2.5598 16.955-5.6014 21.568-5.8696 31.421-17.046 30.264-34.327-1.9006-28.382-50.079-25.097-50.14 3.4195-0.02206 10.361-4.8573 15.3-10.072 10.288-2.6646-2.5611-2.328 1.0047 0.34821 3.6896 2.5046 2.5127 4.349 2.56 7.0501 0.18065 2.0601-1.8147 2.0601-1.8147 3.5493-0.03918 0.81904 0.97652 2.37 2.0671 3.4467 2.4236 2.5425 0.84181 3.8243 2.314 4.2372 4.8665 0.78126 4.8299-5.2648 6.1224-9.5966 2.0514-1.0264-0.96454-1.3162-1.0406-1.3162-0.34529 0 2.8839 6.0168 5.0946 9.572 3.5169 6.1438-2.7265 6.4254-9.5528 0.67692-16.407-1.9033-2.2693-3.351-7.0583-3.1064-10.276 0.18712-2.4623 0.18712-2.4623 1.6991 0.78575 2.1058 4.5236 4.6098 6.4407 12.933 9.9013 4.1904 1.7423 6.7873 7.5513 4.4321 9.9141-1.243 1.247 0.35355 0.7433 2.1079-0.66503 4.3626-3.5021 2.5394-9.4338-3.8846-12.639-9.7278-4.853-14.55-13.349-10.415-18.351 1.1452-1.3854 1.1452-1.3854 0.83922 2.4291-0.41592 5.1856 0.72706 7.3683 4.9938 9.5364 10.95 5.5642 24.792-4.1618 17.02-11.959-1.6809-1.6863-5.8647-2.47-5.8647-1.0985 0 0.32277 0.90252 0.58686 2.0056 0.58686 4.0826 0 5.3262 4.4719 2.1342 7.6743-4.5372 4.5519-15.254 0.32114-15.254-6.022 0-12.991 21.324-12.151 27.275 1.0746 7.2668 16.151-4.0802 30.695-29.631 37.98-46.799 13.344-42.381 59.903 5.7203 60.282 14.477 0.11401 18.865 2.5167 18.865 10.331 0 20.576-35.097 21.318-50.283 1.0636-1.21-1.6139-5.2012-6.1117-8.8693-9.9952-4.501-4.7653-7.3789-8.3904-8.8518-11.15-2.3225-4.3518-4.0751-6.5424-6.2411-7.8006-1.5436-0.89667-1.5012-0.79684 1.4526 3.4177 1.018 1.4525 2.3326 3.4331 2.9214 4.4014 2.1259 3.4962-2.5525-1.452-5.3371-5.645-2.4392-3.6728-4.3466-5.8458-4.3466-4.9517 0 0.7697 1.3655 2.9568 3.6769 5.8895 1.2774 1.6207 3.2392 4.3991 4.3595 6.1744s2.6003 3.8645 3.2887 4.6428 0.88929 1.2042 0.44639 0.94644c-2.2963-1.3363-11.28-13.093-13.576-17.766-1.5088-3.0714-1.7058-3.0955-1.7058-0.20809 0 1.8816 0.56145 2.9977 3.1737 6.3087 4.8936 6.2025 9.2428 12.532 8.6111 12.532-0.69553 0-7.2653-7.9504-10.05-12.162-1.1149-1.6862-2.2246-3.0727-2.4659-3.081-1.1884-0.041-0.02988 2.108 4.2494 7.8825 2.5784 3.4794 4.8335 6.6249 5.0112 6.9901 0.85824 1.7636-6.3742-6.6046-8.4575-9.7856-2.6169-3.9958-2.5396-3.9053-5.0522-5.9124-1.763-1.4083-1.763-1.4083-1.5508 2.8085 0.22686 4.507-0.90715 8.5651-2.3935 8.5651-1.1071 0-12.927-12.182-14.148-14.582-1.0001-1.965-1.0001-1.965-2.5064 0.88028-5.7832 10.924-11.018 15.6-12.874 11.501-0.54829-1.2104-1.0732-2.3135-1.1665-2.4513s-0.54024 0.25789-0.99321 0.87936-0.97394 0.9791-1.1577 0.79473 0.1867-0.89606 0.82327-1.5815 1.0026-1.6511 0.80869-2.158c-0.48906-1.2786-0.79124-1.1669-2.6939 0.99561-1.5794 1.795-1.6554 1.821-1.2931 0.44014 0.21177-0.80692 1.0136-2.1418 1.7817-2.9664 3.0343-3.2571 1.5216-3.8661-1.6928-0.68141-1.6992 1.6835-3.2786 3.061-3.5098 3.061-0.96682 0-0.23963-1.174 2.8461-4.5948 1.7965-1.9916 3.1251-3.6211 2.9524-3.6211-1.392 0-3.4469 1.8994-5.9171 5.4694-2.007 2.9005-2.9773 3.8947-3.1133 3.1901-0.10871-0.56298 0.30466-1.7514 0.91861-2.6408 1.9051-2.7601 2.0162-3.0844 1.0566-3.0844-0.498 0-2.2457 1.8486-3.8837 4.108-4.2378 5.8453-5.5949 5.7253-2.0496-0.18124 1.1026-1.8369 1.6949-3.3359 1.3162-3.3309-1.0817 0.01412-1.7135 0.65322-3.9058 3.9512-3.1564 4.7482-4.1842 4.1304-1.14-0.6853 0.98167-1.5529 1.6511-2.9577 1.4876-3.1217-0.89959-0.9025-2.3782 1.0441-5.0568 6.6574-1.9861 4.162-3.9534 7.2928-5.84 9.2941-1.5648 1.6598-3.6137 4.7232-4.5531 6.8076-4.6915 10.409-12.952 15.024-14.413 8.0519-0.64475-3.077-3.0828-3.924-4.8338-1.6793-0.81777 1.0483-2.1105 2.1439-2.8728 2.4346-2.1472 0.81899-1.6798 1.5333 2.1239 3.2458 5.6698 2.5527 4.6959 3.4442-1.4223 1.302-3.6299-1.2709-3.7158-1.274-5.3624-0.19162-1.2162 0.79949-1.437 1.1733-0.8079 1.3682 1.6959 0.52553 2.9129 2.0827 2.9129 3.7271 0 2.0005-0.03252 1.9955 2.6546 0.40497 1.7644-1.0444 2.2241-1.1225 2.6392-0.44858 0.31826 0.51662 0.22211 0.97363-0.26202 1.2454-2.7396 1.5381-5.1503 5.825-3.0538 5.4304 1.5394-0.28972 2.5398-0.12464 3.6443 0.60136 1.554 1.0215 2.5288 0.68828 2.7679-0.94609 0.11169-0.76346 1.0698-2.277 3.405-5.379 1.685-2.2383 1.8036-0.65977 0.19025 2.5342-1.5782 3.1244-1.652 6.4104-0.12275 5.4604 0.39273-0.24396 1.7503-0.58487 3.0168-0.75757 2.3028-0.314 2.3028-0.314 0.73121-2.0136-1.5811-1.7098-2.0732-4.0821-0.98661-4.7559 0.33938-0.21042 0.58497 0.36265 0.58497 1.365 0 1.2121 0.45294 2.0254 1.5176 2.7253 1.0307 0.67753 1.4237 1.358 1.2248 2.1209-0.16104 0.61781-0.07323 1.2594 0.19513 1.4258 0.94978 0.5889 1.2424-2.1512 0.52832-4.9466-1.0438-4.086-0.1777-5.9158 1.1346-2.3971 0.83713 2.2446 1.3023 2.7201 3.0998 3.1687 3.0519 0.76168 3.7579 0.25593 5.2065-3.7297 1.2961-3.5663 1.2961-3.5663 3.1853-1.3559 6.0369 7.0634 9.2998 4.5722 7.8288-5.9773-0.84827-6.0833-0.15749-7.72 1.7133-4.0594 3.7671 7.3709 7.1239 5.3157 7.1239-4.3616 0-5.7531 0.18161-5.9208 3.2937-3.0429 1.9517 1.8048 3.0006 2.3394 4.5902 2.3394 2.24 0 2.5957-0.58432 1.1093-1.8219-0.77757-0.64741-0.88916-1.5339-0.61141-4.8576 0.401-4.7986 1.0048-5.7056 2.3883-3.5873 1.7555 2.6878 4.9509 1.91 6.7016-1.6315 1.09-2.205 1.5514-2.6635 2.1656-2.1522 1.7428 1.4511 6.3578-2.1242 4.9455-3.8314-0.61538-0.74389-0.57688-0.89749 0.22498-0.89749 1.2193 0 1.7491 1.3344 1.2778 3.2184-0.37357 1.4932-2.9776 3.2333-4.8515 3.2419-1.1336 0.00521-3.9017 4.4505-3.3395 5.363 1.6804 2.7278 12.309 6.0092 22.468 6.9366 9.8594 0.90005 12.737 1.5395 15.114 3.3588 2.0145 1.5415 2.0145 1.5415 1.613-0.60549-0.42165-2.2548 0.15918-2.7744 1.4105-1.2617 2.452 2.964-0.30005 6.5845-7.9012 10.395-8.7126 4.3673-8.9346 4.7624-6.9698 12.403 2.7584 10.726 7.798 16.45 19.765 22.451 4.8664 2.4399 8.9358 4.6777 9.0431 4.973 0.25763 0.70926-0.30139 0.67802-1.746-0.09759-0.64987-0.34893-1.321-0.49449-1.4915-0.32348-0.74195 0.74434 5.7366 3.9876 11.779 5.8968 9.5953 3.0318 11.23 4.7805 10.747 11.492-0.49059 6.8042-10.552 13.629-13.628 9.2437-0.50942-0.72624-1.5179-2.2447-2.241-3.3744-2.2566-3.5253-5.496-2.9894-5.1659 0.85461 0.09454 1.1008-0.13134 2.5698-0.50194 3.2645-0.8696 1.6301-0.79871 1.6815 3.7613 2.725 4.3377 0.99262 4.7623 2.3174 0.53914 1.682-5.8481-0.87981-9.5096 2.0693-6.64 5.3482 0.9683 1.1064 1.7606 2.3986 1.7606 2.8715 0 1.7638 3.9807 0.63987 4.4555-1.2579 0.39728-1.588 3.9318-4.9245 5.2168-4.9245 1.2934 0 1.0713 0.42942-1.4828 2.8669-3.0081 2.8708-3.0294 3.713-0.08201 3.2402 1.5012-0.24082 2.824-0.0646 3.9473 0.52585 1.9961 1.0492 2.6595 0.42149 2.1667-2.0503zm-12.584 1.1686c0.38607-0.38733 0.70196-1.2812 0.70196-1.9865 0-0.73165 0.64978-1.7094 1.5132-2.2769 1.8781-1.2346 2.4117-0.87277 0.83029 0.56299-0.64544 0.586-1.1735 1.4999-1.1735 2.0308 0 1.0747-1.0885 2.3738-1.9889 2.3738-0.32498 0-0.27298-0.31298 0.117-0.70422zm10.404-0.41399c-1.1419-1.2659-1.0639-4.225 0.1217-4.6158 0.54321-0.17904 0.65296 0.16532 0.38898 1.2205-0.20226 0.80845-0.06079 2.0453 0.31436 2.7486 0.90405 1.6947 0.44493 2.0546-0.82504 0.64675zm8.1426-2.9755c-0.37665-1.7204-0.04986-2.9486 0.78453-2.9486 0.23438 0 0.46813 1.0563 0.51945 2.3474 0.10897 2.7414-0.74884 3.1369-1.304 0.60117zm8.4789-2.3271c0-1.6329 0.26324-2.9689 0.58497-2.9689s0.58497 1.1728 0.58497 2.6062-0.26324 2.7694-0.58497 2.9689c-0.36053 0.22354-0.58497-0.77638-0.58497-2.6062zm-12.751-1.7093c-0.60765-0.38671-0.58175-0.63045 0.12994-1.223 0.72222-0.60132 1.0535-0.5748 1.7676 0.14152 0.78165 0.78418 0.77817 0.92028-0.03154 1.232-1.1003 0.42359-0.94406 0.43619-1.866-0.1505zm9.6733-2.3684c-0.15896-0.60982-0.06899-1.4659 0.19992-1.9024s0.34992-1.4561 0.18002-2.2657c-0.30891-1.472-0.30891-1.472 0.85403-0.14575s2.3422-0.48193 1.7252-2.6504c-0.09584-0.33687 0.08898-0.62857 0.41071-0.64823 0.33767-0.02063 0.53437 1.3491 0.46529 3.2402-0.11742 3.2142-0.66264 4.731-1.1791 3.2803-0.14363-0.40346-0.51398-0.73357-0.82301-0.73357s-0.51913 0.33011-0.46691 0.73357c0.29088 2.2473-0.83123 3.1442-1.3662 1.092zm-13.302 0.28771c0-0.24989 4.5284-2.7001 4.9902-2.7001 0.91924 0 0.00609 1.2828-1.4514 2.0389-1.6095 0.835-3.5388 1.1955-3.5388 0.66118zm-7.5833-2.9678c-0.38882-0.47001-0.53-1.1418-0.31374-1.4928s0.06979-1.0292-0.32548-1.507-0.55592-1.032-0.35698-1.2316c0.62806-0.63009 2.1449 1.067 2.1449 2.3997 0 0.70285 0.31588 1.5948 0.70196 1.9821 0.54597 0.54773 0.49689 0.70422-0.22086 0.70422-0.50754 0-1.2409-0.38456-1.6298-0.85458zm26.229-1.1994c-0.31194-1.2518-0.1256-6.162 0.23384-6.162 0.8214 0 1.5716 2.901 1.214 4.6946-0.29817 1.4956-1.2104 2.4202-1.4478 1.4674zm8.8395-1.4824c-0.76293-1.4302-0.52623-7.7347 0.30063-8.0076 0.35727-0.11792 0.58497 1.6344 0.58497 4.5018 0 5.2049 0.00667 5.1785-0.8856 3.5058zm-6.0843-4.3759c0.28447-1.1371 0.04403-2.0456-0.86945-3.2852-1.4331-1.9446-1.232-2.1278 0.84032-0.76559 1.4028 0.92213 1.4418 0.90718 1.4418-0.55221 0-0.82501-0.26323-1.6632-0.58496-1.8627-0.96036-0.59545-0.66182-1.6223 0.35756-1.2299 0.75295 0.28986 0.87242 0.08265 0.59401-1.0302-0.24392-0.97496 0.06737-1.8786 1.0372-3.0109 3.0358-3.5444 2.2858-8.3179-1.2038-7.6612-2.2199 0.41781-5.4647-0.98034-5.4647-2.3547 0-0.77977 0.15018-0.78002 1.3334-0.00223 0.84174 0.55331 2.4716 0.8288 4.4202 0.7471 3.9849-0.16707 5.8329 1.6536 4.4337 4.3681-0.45535 0.88339-0.82791 1.9965-0.82791 2.4737s-0.46066 1.3297-1.0237 1.8946c-0.92132 0.92441-1.1314 2.1188-1.3276 7.5494-0.02299 0.63634-0.40068 1.5606-0.83932 2.054s-0.88733 1.5365-0.99709 2.3182-0.54011 1.5337-0.95631 1.6713c-0.55284 0.18274-0.65078-0.17335-0.36349-1.3216zm10.009-6.0459c-0.97102-1.0764-1.8161-6.5817-1.0103-6.5817 0.24742 0 0.59382 1.0768 0.76978 2.393s0.73709 2.8554 1.247 3.4206 0.92702 1.2049 0.92702 1.4216c0 0.73229-0.98313 0.4-1.9334-0.65347zm-29.362-7.894c-2.436-0.87836-6.1421-3.2779-6.1421-3.9768 0-0.92555 0.67672-0.67775 4.0676 1.4895 1.7546 1.1214 3.5159 2.039 3.914 2.039s0.88647 0.26409 1.0853 0.58686c0.45257 0.73463-0.64769 0.6825-2.9248-0.13858zm-0.21221-2.2427c-2.4861-1.5206-2.0167-2.1546 0.59279-0.80076 1.0734 0.55689 2.6115 1.2139 3.4179 1.46 1.4303 0.43649 1.4233 0.44862-0.2887 0.49568-0.96519 0.02654-2.6401-0.49316-3.722-1.1549zm2.2844-0.8165c-0.46382-0.56068-0.51411-0.91025-0.13094-0.91025 0.34213 0 0.78475 0.26408 0.98359 0.58686s0.77308 0.58685 1.2761 0.58685c0.77108 0 0.793-0.14695 0.13971-0.93664-0.67769-0.81921-0.59499-0.91119 0.65959-0.73357 0.7951 0.11256 1.4344 0.59541 1.4344 1.0834 0 1.2414-3.3949 1.493-4.3624 0.32339zm27.834-0.37038c-0.85078-0.6714-1.4032-1.454-1.2275-1.7392s0.79355-0.06594 1.3731 0.48713 1.5571 1.3202 2.1723 1.7046c0.92492 0.57802 0.95501 0.70504 0.1738 0.73357-0.51964 0.01899-1.6409-0.5148-2.4917-1.1862zm-47.78-7.4809c-7.3832-2.7201-13.062-7.4345-15.971-13.258-2.3846-4.7742-1.5634-4.6384 1.3662 0.22605 2.9375 4.8774 7.967 9.1348 14.272 12.081 4.4834 2.0951 4.6379 2.5372 0.33222 0.95096zm-2.1272-2.6219c-5.5451-2.9268-12.289-10.469-11.771-13.164 0.11789-0.61413 1.0193 0.36729 2.4715 2.6909 2.2629 3.6208 7.9925 9.4587 9.3124 9.4884 1.626 0.03659 5.4264 2.2361 3.9014 2.258-0.80433 0.01154-2.5656-0.56128-3.9138-1.2729zm0.69654-1.8752c-2.3703-0.83387-5.5632-3.9333-7.4914-7.272-1.4691-2.5437-0.2108-2.3082 1.369 0.25629 1.2856 2.0869 6.8291 6.7167 8.0421 6.7167 0.35394 0 0.80622 0.26409 1.0051 0.58686 0.47162 0.76556-0.08676 0.71061-2.9248-0.28784zm0.21104-3.1828c-0.75953-0.61776-1.2494-1.2543-1.0885-1.4145s1.0822 0.34388 2.0474 1.1203 1.455 1.4129 1.0885 1.4145-1.2878-0.50252-2.0474-1.1203zm17.045-11.254c0-3.4352-1.2693-9.1181-2.6628-11.921-2.1884-4.4024 1.5122-8.8504 4.4294-5.3241 1.0014 1.2105 0.36949 1.7017-1.0472 0.81414-3.0483-1.9099-3.7695 0.46305-1.4932 4.913 1.7654 3.4512 2.7157 12.792 1.4324 14.079-0.48814 0.48972-0.65859-0.17309-0.65859-2.5611zm21.151 0.34618c-1.445-3.6268-2.2076-4.624-4.7721-6.2407-3.0329-1.912-2.2328-2.2496 1.1854-0.5002 2.5446 1.3024 4.8897 5.0589 4.511 7.2261-0.20175 1.1546-0.28927 1.1087-0.92432-0.4852zm9.2121-3.284c-1.6315-1.7472-2.3431-2.878-1.8113-2.878 0.89165 0 5.376 4.4872 5.376 5.3794 0 0.97388-0.92735 0.32317-3.5648-2.5014zm-154.45-3.6769c-0.49307-1.0857-0.40659-1.8165 0.39932-3.3744 0.56578-1.0937 1.135-1.6732 1.2648-1.2876s-0.05344 1.2438-0.40736 1.9073c-0.44925 0.84214-0.4607 1.5489-0.03794 2.3414 0.76005 1.4248 0.76173 1.7991 0.00804 1.7991-0.32863 0-0.88073-0.6236-1.2269-1.3858zm148.94 0.21208c-0.45755-0.74272 0.31684-0.74272 1.4624 0 0.75618 0.49026 0.74074 0.57013-0.11172 0.57787-0.54404 0.00494-1.1519-0.2551-1.3507-0.57787zm21.936-0.58685c-0.48259-0.31289-2.1936-0.59149-3.8023-0.61912-4.3353-0.07446-5.7348-0.88225-1.693-0.9772 2.9358-0.06895 6.6652 0.99687 6.6652 1.9048 0 0.38674-0.16448 0.34337-1.1699-0.3085zm-151.72-1.884c-0.46412-1.7382-0.47576-5.9719-0.0197-7.1643 0.74508-1.9479 1.1058-0.771 1.063 3.4686-0.04636 4.5971-0.43501 5.9738-1.0433 3.6956zm115.89 0.89261c-0.56303-0.1476-1.0237-0.52239-1.0237-0.83285 0-0.34758 0.39334-0.36151 1.0237-0.03627 0.56303 0.29051 1.4185 0.67509 1.9011 0.8546 1.1338 0.42175-0.30591 0.43275-1.9011 0.01452zm-3.9398-2.5026c-0.79952-0.61629-1.326-1.247-1.1699-1.4015s1.0734 0.35427 2.0386 1.1307c2.0655 1.6615 1.2609 1.9124-0.86871 0.27083zm-101.8-1.8075c-0.45961-1.1132-0.60164-2.9107-0.379-4.7966 0.52319-4.4318 1.3838-4.6564 1.3196-0.34439-0.03024 2.0315 0.14745 4.4199 0.39488 5.3075 0.60957 2.1868-0.4167 2.0588-1.3355-0.16652zm69.034-0.59056c0-0.3357 1.051-1.6134 2.3356-2.8393 1.3495-1.2879 2.4917-3.0123 2.7055-4.0845 0.41299-2.0716 1.3936-2.5242 1.3936-0.64326 0 1.7105-0.98136 3.4329-3.4052 5.9767-2.1212 2.2261-3.0294 2.7029-3.0294 1.5903zm3.5098-0.24927c0-0.49551 0.26888-0.90093 0.5975-0.90093s0.91545-0.70007 1.304-1.5557c0.70654-1.5557 0.70654-1.5557 1.1185 0.44014 0.22656 1.0977 0.16621 2.2467-0.13411 2.5534-0.3433 0.35052-0.54604 0.28837-0.54604-0.16736 0-0.54302-0.29351-0.56729-1.1699-0.09672-0.93378 0.50136-1.1699 0.4463-1.1699-0.27278zm-6.6473-1.1915c0.18458-0.48256 1.3608-1.4555 2.6139-2.162 3.0087-1.6964 4.9073-5.475 4.3881-8.7329-0.45468-2.8525 0.53756-3.1007 1.0675-0.26695 0.6605 3.5322-0.5397 6.4054-3.9118 9.3647-3.0629 2.688-4.7828 3.4314-4.1577 1.7971zm-82.122-1.6167c0.1339-0.40347 0.73974-0.83005 1.3463-0.94798 0.95414-0.18549 0.9971-0.08658 0.31862 0.73357-0.92787 1.1216-2.0124 1.2613-1.6649 0.21441zm-0.12387-2.7637c2.1213-1.8191 2.9027-2.1522 2.9027-1.2375 0 0.70963-3.1697 2.9742-4.163 2.9742-0.42078 0 0.14633-0.78152 1.2602-1.7367zm106.44 0.96496c0-1.2386 2.259-3.0652 2.9427-2.3794 0.3769 0.37812-0.03113 1.0267-1.1838 1.8816-1.2518 0.92851-1.7589 1.072-1.7589 0.49773zm-99.135-0.52056c-0.22684-0.5494-0.1998-1.3416 0.06008-1.7606s0.42146-1.4219 0.35906-2.2288c-0.11138-1.4402-0.10209-1.4375 0.50552 0.14671 0.72751 1.8968-0.17666 5.6544-0.92466 3.8427zm-19.054-1.6922c-0.35912-0.67319-0.50926-1.3681-0.33365-1.5443s0.05606-0.81378-0.26567-1.4169c-0.40023-0.75025-0.38916-1.0966 0.03506-1.0966 0.34101 0 0.87686 0.72623 1.1908 1.6138s0.83609 2.076 1.1604 2.6408c0.44846 0.78107 0.38329 1.027-0.27215 1.027-0.474 0-1.1556-0.55079-1.5148-1.224zm12.311-1.4169c2.0752-2.148 2.6926-2.5566 1.9949-1.3204-0.7738 1.371-2.7814 3.3744-3.3815 3.3744-0.32876 0 0.29523-0.9243 1.3866-2.054zm9.5937-1.8391c0.03202-2.1626 0.32146-4.019 0.64319-4.1253 0.35068-0.11582 0.58497 1.3711 0.58497 3.7124 0 2.3151-0.26194 3.9951-0.6432 4.1253-0.42903 0.14653-0.62381-1.0896-0.58496-3.7124zm14.69 1.9481c-1.15-2.7612-1.1457-7.4749 0.00814-8.9463 0.82563-1.0529 0.86545-0.93183 0.52593 1.599-0.20203 1.506-0.07207 4.1194 0.2888 5.8075 0.79163 3.7032 0.39063 4.4536-0.82287 1.5399zm81.01 0.4779c0.40052-0.48416 1.1231-0.88029 1.6057-0.88029 0.71363 0 0.74149 0.16435 0.14923 0.88029-0.40052 0.48415-1.1231 0.88028-1.6057 0.88028-0.71363 0-0.7415-0.16435-0.14923-0.88028zm-92.726-3.8128c0.05656-1.6129 0.24753-3.0777 0.42437-3.2551 0.51226-0.51392 1.1471 3.7727 0.74633 5.0395-0.66687 2.1079-1.2747 1.1814-1.1707-1.7844zm3.6317 0.2094c-0.20038-0.20102-0.08797-0.88354 0.2498-1.5167s0.44864-1.8127 0.24639-2.6211c-0.26399-1.0552-0.15425-1.3995 0.38898-1.2204 1.0715 0.3533 1.2961 4.2109 0.29376 5.0455-0.44804 0.37304-0.97856 0.51377-1.1789 0.31275zm3.4313-5.3462c0.25144-1.2104 0.4402-2.7949 0.41947-3.5211s0.19268-1.3204 0.47425-1.3204c0.8957 0 1.2928 2.9655 0.60104 4.4887-0.36665 0.80731-0.51614 1.7121-0.3322 2.0107s-0.10525 0.54287-0.64264 0.54287c-0.82036 0-0.90375-0.35297-0.51992-2.2007zm57.585 1.6138c0-0.36087-0.2651-0.49176-0.5891-0.29086s-0.74064-0.03094-0.92586-0.51518c-0.19906-0.52041-0.73556-0.74027-1.312-0.53767-0.77054 0.27079-0.82943 0.18445-0.28053-0.41128 0.56191-0.60986 1.0497-0.52854 2.5514 0.42535 1.1413 0.72493 1.6061 1.3347 1.2064 1.5826-0.35766 0.22176-0.65029 0.10795-0.65029-0.25292zm-42.125-0.88955c-1.0592-1.2804-1.121-8.0021-0.07687-8.3642 0.60096-0.20842 0.70119 0.14396 0.41402 1.4556-0.20838 0.95185-0.09559 2.9988 0.25066 4.5488 0.69834 3.1262 0.54743 3.7321-0.58781 2.3598zm33.968-2.373c0.77361-0.82612 1.5025-1.2134 1.6197-0.86056 0.29616 0.89136-1.023 2.3626-2.1184 2.3626-0.6905 0-0.57112-0.35953 0.49875-1.502zm2.3072 0.62175c0.40052-0.48416 0.99145-0.88029 1.3132-0.88029 0.32631 0 0.26297 0.38924-0.14325 0.88029-0.40052 0.48415-0.99145 0.88028-1.3132 0.88028-0.32632 0-0.26297-0.38924 0.14325-0.88028zm-49.137-2.3474c0-2.2798 0.79547-2.6788 1.7549-0.88029 0.42451 0.79577 0.43114 1.1737 0.02058 1.1737-0.33305 0-0.60555 0.39613-0.60555 0.88029s-0.26323 0.88028-0.58496 0.88028-0.58497-0.9243-0.58497-2.054zm39.778 1.7212c0-0.35171 4.1087-4.362 4.4691-4.362 0.61806 0 0.03405 1.2942-1.3038 2.8892-1.3241 1.5787-3.1653 2.4354-3.1653 1.4728zm4.8215-1.2499c0.8677-0.8705 1.7595-1.4003 1.9818-1.1773 0.56772 0.56955-1.5272 2.76-2.6396 2.76-0.67371 0-0.49772-0.42338 0.6579-1.5827zm-7.6489 0.5199c0.28751-0.70183 5.1672-5.008 5.1672-4.5599 0 0.62911-1.9654 3.5156-2.9168 4.2837-1.0026 0.80942-2.5465 0.99895-2.2504 0.27626zm-1.8524-1.8869c0.80433-0.63259 2.186-1.8782 3.0704-2.768 2.2066-2.2201 2.0381-0.68151-0.20619 1.8828-1.0433 1.1921-2.3495 2.0661-3.0711 2.0549-1.2162-0.01892-1.2097-0.05559 0.20684-1.1697zm-3.8023-0.16574c0.64346-0.38447 2.2842-1.8214 3.6462-3.1932 2.7782-2.7983 3.4403-3.1159 2.4463-1.1737-1.3082 2.5563-4.2259 5.1361-5.7686 5.1005-1.4233-0.03288-1.4386-0.06754-0.32397-0.73357zm-28.094-0.43133c-0.20755-0.33691-0.10831-0.93781 0.22054-1.3353s0.68056-2.0365 0.78157-3.6421c0.10676-1.6971 0.42857-2.7965 0.76862-2.626 0.32173 0.16139 0.4761 0.55751 0.34304 0.88028s-0.2903 1.7752-0.34944 3.2277-0.1477 2.971-0.1968 3.3744c-0.10845 0.89112-1.0484 0.96368-1.5675 0.12101zm136.12-1.4518c-1.6376-2.0886-2.1965-6.1916-1.1854-8.7027 0.79694-1.9793 7.5237-9.7504 7.5237-8.6918 0 0.30862-1.5794 2.3096-3.5098 4.4466-4.0193 4.4494-4.4695 6.6714-2.3166 11.432 1.3785 3.0482 1.1711 3.6625-0.51185 1.5161zm-112.41 0.62479c0-0.14625 0.91972-0.70374 2.0438-1.2389 2.2871-1.0888 5.5607-4.5335 5.5607-5.8513 0-0.47292 0.26324-0.85986 0.58497-0.85986 1.85 0-1.0297 6.049-3.4865 7.3236-1.5904 0.82509-4.703 1.2397-4.703 0.62649zm-20.737-2.0344c-0.53463-0.86785 0.08972-3.5683 0.82501-3.5683 0.94692 0 1.0501 0.83371 0.3186 2.5747-0.4661 1.1094-0.86097 1.4524-1.1436 0.99364zm14.073-0.97547c-0.55684-1.4558-0.4158-3.7666 0.2299-3.7666 0.32173 0 0.58496 0.54553 0.58496 1.2123s0.2725 1.7231 0.60555 2.3474c0.4673 0.87598 0.41481 1.1351-0.2299 1.1351-0.45949 0-0.99523-0.41773-1.1905-0.92829zm-9.4094-3.033c0.23666-0.56485 0.55874-1.6212 0.71574-2.3474 0.39756-1.839 1.1382-1.6484 1.4334 0.36897 0.17264 1.18-0.0695 1.8878-0.80311 2.3474-1.4734 0.92312-1.8447 0.82133-1.346-0.36897zm16.951-2.7427c1.0187-0.8222 1.85-1.1502 1.9816-0.78183 0.27552 0.77111-1.5648 2.2052-2.8246 2.2012-0.59468-0.0019-0.30142-0.49563 0.84301-1.4193zm69.963-4.5062c-0.12088-6.6296 3.6876-9.377 10.879-7.8482 12.173 2.5878 19.537-0.01785 23.829-8.4316 1.3255-2.5984 1.7627-2.0414 0.59619 0.75954-3.2727 7.8578-10.358 10.708-22.046 8.8697-8.5613-1.3468-11.02-0.05675-12.457 6.5358-0.74172 3.4024-0.74172 3.4024-0.80166 0.11474zm-8.2238-7.4805c-0.08067-4.3309 5.2244-9.7927 9.997-10.292 4.5849-0.48001 16.917-0.7822 16.541-0.40534-0.17677 0.17734-4.4035 0.48775-9.3926 0.68981-7.7247 0.31283-9.2984 0.53749-10.601 1.5134-2.3069 1.7279-4.8066 5.0545-5.7112 7.6003-0.61158 1.7213-0.8137 1.9382-0.83315 0.89415zm29.808-12.755c1.4478-0.826 3.3535-2.19 4.2349-3.0311s1.7368-1.3946 1.9009-1.23c0.38524 0.38648-3.5375 3.5495-5.9605 4.8062-2.9547 1.5324-3.0883 1.1169-0.17529-0.54503zm-31.588-3.7145c0-2.8899 13.339-7.7116 18.134-6.5549 1.7924 0.4324 1.5739 0.4983-1.7549 0.52925-5.1376 0.04775-14.624 3.5329-14.624 5.3726 0 0.26191-0.39485 0.62821-0.87745 0.81401s-0.87745 0.11333-0.87745-0.161zm21.534-6.9075c0.42228-0.16952 0.92681-0.14868 1.1212 0.04633s-0.15112 0.33371-0.76777 0.30822c-0.68146-0.02815-0.82006-0.16721-0.35342-0.35455zm4.4969-0.46712c1.6087-0.43384 3.0041-0.71063 3.1009-0.6151 0.32279 0.31837-3.5497 1.4837-4.7969 1.4435-0.67588-0.02179 0.08729-0.39457 1.696-0.8284zm5.9237-2.0181c1.3277-0.60484 2.5936-1.3913 2.8131-1.7477s0.6624-0.64796 0.98413-0.64796c1.0846 0-0.13277 1.1825-2.4253 2.3558-1.2523 0.64093-2.6164 1.1595-3.0314 1.1524s0.33176-0.50776 1.6594-1.1126zm-12.547-25.305c-0.74581-1.6309-2.1265-3.8457-3.0681-4.9217s-2.0557-2.776-2.4756-3.7778c-0.76342-1.8215-0.76342-1.8215-2.9554 0.80933-1.7925 2.1513-2.5332 2.6216-4.0641 2.5804-1.872-0.05045-1.872-0.05045-0.20051-0.55297 3.8982-1.172 5.6406-4.4172 5.6406-10.506 0-12.947 12.818-23.777 27.733-23.433 3.5625 0.08208 3.5625 0.08208-0.83585 0.50575-8.6241 0.8307-12.573 4.658-12.17 11.797 0.39316 6.9805 7.5026 11.011 15.106 8.5648 1.4279-0.45942 1.4348-0.44774 0.29248 0.49474-1.3798 1.1385-9.1272 0.90635-11.454-0.34319-4.9516-2.6586-6.8723-11.318-3.5195-15.867 1.8112-2.4577 1.3427-2.5996-1.8587-0.56274-9.8744 6.2824-6.9753 18.752 5.9419 25.558 2.721 1.4336 4.7217 2.9387 5.4088 4.0689 1.1453 1.8841 1.5353 5.9508 0.50976 5.3149-0.32173-0.19948-0.58497-1.018-0.58497-1.819 0-2.4672-2.3863-4.9288-7.0776-7.301-9.1609-4.6323-12.924-11.883-10.18-19.613 1.0949-3.0839 0.90111-3.0956-1.5976-0.09676-5.8986 7.0794-6.0594 16.357-0.41791 24.12 2.8185 3.8785 3.817 6.0388 3.388 7.3299-0.11264 0.339-0.815-0.71803-1.5608-2.349zm-88.521 163.94c0.87524-1.6691 0.85313-2.2337-0.05903-1.5073-0.40217 0.32023-1.7125 0.8993-2.912 1.2868-2.1807 0.70458-2.1807 0.70458-0.93692 2.3924 1.3557 1.8396 1.9889 1.4877 3.9079-2.1718zm-15.152-0.91492c-1.7015-1.3822-2.1143-1.3039-2.5621 0.48611-0.78418 3.1345 0.13253 4.0998 2.0988 2.2099 1.7324-1.6651 1.7324-1.6651 0.4633-2.696zm25.154-1.37c0.98265-1.4607 2.2119-3.4808 2.7316-4.4891 0.94498-1.8333 0.94498-1.8333 1.6647-0.11616 0.80203 1.9136 2.4822 3.5516 3.0544 2.9776 0.20475-0.2054-0.06485-0.85802-0.5991-1.4503-1.2608-1.3977-1.2371-4.5642 0.05324-7.1114 1.6456-3.2486 2.5585-2.8727 1.2721 0.52372-1.2306 3.2493-1.446 5.6296-0.55898 6.1795 0.3123 0.19363 0.73051-0.38498 0.92937-1.2858 0.67578-3.0614 2.0464-7.035 2.7682-8.0253 1.0319-1.4157 4.5092 3.113 4.5092 5.8726 0 2.7395 0.72011 2.8095 1.9886 0.19325 1.1006-2.27 1.1006-2.27-0.80091-4.4427-2.1305-2.4344-2.255-5.9149-0.2784-7.7872 0.92982-0.88075 0.97246-0.84469 0.61576 0.52088-1.034 3.9583-1.02 4.4652 0.16218 5.8905 1.1987 1.4452 1.1987 1.4452 1.2446-0.90222 0.06963-3.5651 1.4469-6.4424 2.0321-4.2454 0.50921 1.9117 2.8796 3.952 4.5915 3.952 0.93958 0 1.052-0.15649 0.50608-0.70422-1.4834-1.4882-0.70974-4.415 2.0452-7.7368 4.2809-5.1616 4.2839-7.6649 0.01182-9.8158-5.3503-2.6938-6.3337-4.9847-3.3648-7.8382 2.227-2.1405 1.6668-3.167-0.65755-1.2049-0.96832 0.81741-2.0216 1.3244-2.3405 1.1266-0.63866-0.39599 3.102-3.1694 4.2748-3.1694 0.54438 0 0.5631-0.17045 0.07276-0.66238s-1.0676-0.34091-2.2433 0.58686c-2.1744 1.7159-3.1031 1.5739-1.4252-0.21791 0.75563-0.80693 1.7251-1.4671 2.1543-1.4671 0.62014 0 0.63797-0.22888 0.08677-1.1143-0.67736-1.0881-0.73231-1.0857-2.3376 0.10502-0.90417 0.67065-1.8441 1.0185-2.0888 0.77308s0.27992-0.97595 1.1658-1.6233c1.9755-1.4437 1.5284-2.6099-0.49157-1.2821-1.7117 1.1252-2.7967 0.48371-1.1835-0.69969 0.60815-0.44613 1.3974-0.91655 1.754-1.0454s0.46785-0.42938 0.24736-0.66787-1.003-0.01057-1.7388 0.5065c-2.1697 1.5247-2.5976 1.0775-0.78512-0.82042 2.044-2.1404 1.3954-2.2962-1.2219-0.29343-1.0545 0.80693-2.2639 1.4594-2.6876 1.4499-0.80374-0.01795 2.1113-2.9287 3.9885-3.9826 0.59465-0.33386 0.89979-0.78899 0.6781-1.0114s-1.3035 0.1539-2.404 0.83626c-2.2141 1.3728-2.7403 1.5059-2.7403 0.69335 0-0.30103 0.46066-0.70457 1.0237-0.89678 1.7085-0.58325 3.7701-2.5909 3.354-3.2663-0.26618-0.43207-0.85774-0.32851-1.8503 0.32393-2.1133 1.3892-2.2097 0.75484-0.18146-1.1946 1.8485-1.7767 2.4717-3.4397 0.72511-1.9349-2.8397 2.4466-3.3898 1.7914-0.65092-0.77531 2.5436-2.3837 1.7218-2.739-1.2836-0.55484-3.8105 2.7692-4.7236 2.1405-1.0024-0.69034 1.8032-1.3718 3.4344-3.078 3.625-3.7916 0.24519-0.91826 2.0861-2.1939 6.2993-4.3651 5.9754-3.0793 7.2323-4.8803 1.4122-2.0236-4.4223 2.1706-5.313 1.8581-1.5533-0.54488 1.7788-1.1369 2.732-2.039 2.1546-2.039-0.56959 0-1.8736 0.6311-2.8977 1.4024-3.3309 2.5087-15.317 7.9873-17.475 7.9873-1.2644 0 0.12653-0.79406 4.1248-2.3547 4.5827-1.7888 13.476-7.1527 12.435-7.5006-0.38162-0.12762-2.462 0.8159-4.6231 2.0967-4.2132 2.4971-10.723 5.0952-11.835 4.7234-0.37347-0.12489 0.85779-0.85261 2.7361-1.6172 3.9644-1.6136 10.565-5.1735 11.049-5.9587 0.49841-0.80905-0.04929-0.65994-2.1895 0.59607-2.8617 1.6794-7.8063 3.4054-12.697 4.4322-4.7132 0.98942-6.4243 0.78294-2.3117-0.27895 6.4792-1.6729 8.7327-2.4807 13.367-4.7916 3.6847-1.8373 4.6439-2.5355 3.7044-2.6963-0.69731-0.11936-2.5906 0.45547-4.2074 1.2774-5.1561 2.6212-12.544 4.4431-18.018 4.4431-7.6276 0-9.5574 1.6642-9.5574 8.2417 0 6.3157 4.9627 17.12 10.184 22.172 7.1356 6.9036 6.8018 12.44-1.2118 20.1-8.6136 8.2342-16.238 10.546-19.209 5.8246-1.5216-2.4182-2.6324-3.0285-2.6324-1.4465 0 1.5148-1.735 3.6617-3.272 4.0487-1.5839 0.39882-1.3855 1.5058 0.26991 1.5058 0.56298 0 1.5246 0.36754 2.137 0.81678 2.5913 1.9009-2.9944 4.0504-6.2017 2.3864-2.1122-1.0958-3.7128-1.0873-4.6325 0.02448-0.59457 0.71873-0.56013 0.88029 0.18769 0.88029 1.3374 0 2.7371 2.3176 2.7371 4.532 0 2.1937 1.577 2.6969 2.7163 0.86667 0.97509-1.5664 8.296-4.5621 9.1225-3.7329 0.48019 0.48174 0.12294 0.87469-1.3521 1.4872l-4.1983 1.7441c-2.3804 0.98926-2.9164 2.1452-0.99464 2.1452 1.6733 0 4.4114 1.5129 5.4624 3.0183 1.1555 1.655 3.868 0.17781 3.868-2.1065 0-1.5634 2.7394-5.204 3.5416-4.7066 0.28058 0.17396-0.00567 1.165-0.6361 2.2023-1.21 1.9908-1.4762 3.6688-0.66216 4.1736 1.1546 0.71586 5.0011-1.1357 6.0442-2.9094 2.5312-4.3039 4.5733-3.9271 6.3688 1.1754 1.4974 4.2553 1.5507 4.2629 4.032 0.57444zm-21.01-0.72648c-0.00978-1.393 0.25471-3.0435 0.58776-3.6678 0.76369-1.4316 2.027-1.5277 1.4213-0.10814-0.241 0.56485-0.50432 1.7264-0.58516 2.5811-0.29049 3.0718-1.4042 4.0063-1.4239 1.1949zm19.725 0.13653c-1.2656-1.2701 1.4813-9.6344 3.164-9.6344 0.79051 0 0.57553 0.96459-0.69733 3.1289-0.65414 1.1122-1.378 3.1301-1.6087 4.484s-0.61675 2.2636-0.85805 2.0214zm-10.95-1.8239c-0.01985-1.3724 0.86308-2.2977 1.3847-1.4511 0.17279 0.28049-0.06388 1.011-0.52594 1.6234-0.81249 1.0768-0.84072 1.0712-0.85872-0.17234zm-17.795-3.5967c-0.19012-0.30863 0.44134-0.67702 1.4032-0.81866s1.7489-0.03917 1.7489 0.2277-0.24171 0.48522-0.53712 0.48522-0.92688 0.15005-1.4032 0.33343-1.0217 0.08093-1.2118-0.22769zm18.039-1.3271c-0.215-0.349 0.29593-1.3538 1.1354-2.2328s1.5263-2.1624 1.5263-2.852c0-2.2381 1.0924-2.0004 1.2801 0.27862 0.18228 2.213 0.18228 2.213 1.4726-0.13443 1.1247-2.0462 1.2936-2.1648 1.3162-0.9247 0.02586 1.4227 0.02586 1.4227 1.4266 0.10258 0.8755-0.82515 1.5437-1.088 1.782-0.70117 0.59559 0.96681 2.6669-0.60739 2.6669-2.0268s1.4827-3.6674 2.047-3.1013c0.21324 0.21393 0.08856 0.94972-0.27707 1.6351s-0.52974 1.6983-0.36471 2.251c0.4295 1.4384-1.4151 3.3373-3.3405 3.439-0.90355 0.04771-2.1373 0.53574-2.7417 1.0845s-1.3607 0.83539-1.6807 0.63699-1.0021 0.23787-1.5158 0.96951c-0.74335 1.0588-1.0366 1.1652-1.437 0.52148-0.58966-0.94795-1.8038-0.38026-1.8038 0.8434 0 0.9924-0.92945 1.1239-1.4918 0.2111zm-2.8954-1.7129c0.19884-0.32277 0.62476-0.58686 0.94649-0.58686s0.42228 0.26409 0.22344 0.58686-0.62476 0.58686-0.9465 0.58686-0.42228-0.26409-0.22343-0.58686zm-1.1699-1.4841c2.92-1.0554 3.2192-1.0494 1.7893 0.03558-0.62452 0.47389-1.8091 0.85003-2.6324 0.83587-1.2399-0.02134-1.0952-0.17091 0.84301-0.87145zm-2.3399-1.4668c1.2869-0.25111 2.998-0.63379 3.8023-0.85039 1.4085-0.3793 1.4206-0.35976 0.32692 0.53003-0.70298 0.57194-2.1513 0.89586-3.8023 0.85038-2.6668-0.07345-2.6668-0.07345-0.32692-0.53002zm-4.9121-2.2182c-0.3965-0.74327-0.61633-1.6662-0.48851-2.0509 0.13175-0.39651 0.54465-0.11416 0.95333 0.65193 0.3965 0.74327 0.61633 1.6662 0.48851 2.0509-0.13175 0.39652-0.54465 0.11416-0.95333-0.65192zm26.263-0.94491c0-2.3648 2.7328-3.8381 3.8263-2.063 0.5908 0.95903-0.18467 1.3882-1.1125 0.61567-0.6646-0.55335-0.89607-0.39907-1.1952 0.79665-0.39353 1.573-1.5186 2.055-1.5186 0.65063zm5.6547-0.14581c-0.81198-0.81459-0.32042-2.1554 1.8036-4.9198 2.6734-3.4793 2.9115-3.5266 2.9115-0.5786 0 2.0164-0.16472 2.3096-1.2364 2.2007-0.93703-0.0952-1.3719 0.33619-1.7961 1.7817-0.55887 1.9045-0.94695 2.2541-1.6827 1.516zm14.482-2.2184c-0.55389-2.214 1.3456-7.3669 2.7156-7.3669 0.26425 0-0.05771 1.2205-0.71546 2.7123-0.75773 1.7185-1.0725 3.3312-0.85918 4.4014 0.40841 2.0487-0.63385 2.28-1.1409 0.25315zm-6.8991-4.4949c0.63686-1.094 1.7077-2.264 2.3797-2.6001 3.1124-1.5567 4.4927-4.9667 2.0104-4.9667-1.7244 0-4.1737-2.2636-4.1737-3.8572 0-1.7901 0.95416-1.8574 1.5081-0.10637 0.49846 1.5756 1.9045 2.7455 3.3304 2.7712 3.67 0.0661 2.2724 5.5663-2.1273 8.3721-4.1239 2.6299-4.2424 2.6456-2.9277 0.38712zm-12.96-3.8189c2.3256-5.543 2.3569-6.9612 0.25605-11.602-1.2324-2.7227-1.392-3.8826-0.53412-3.8826 0.32173 0 0.58497 0.33221 0.58497 0.73824s0.65809 1.9784 1.4624 3.4942c1.7603 3.3174 1.9045 6.9894 0.38601 9.8299-1.1692 2.1871-2.9766 3.3801-2.1553 1.4226zm3.8247-2.897c0.01287-1.843 0.66793-3.7852 1.2766-3.7852 0.32763 0 0.39565 0.79782 0.16263 1.9073-0.4779 2.2754-1.4509 3.5449-1.4393 1.8779zm1.7469-0.81631c0-0.30372 0.26324-0.71543 0.58497-0.91492s0.58497 0.04902 0.58497 0.55222-0.26324 0.91492-0.58497 0.91492-0.58497-0.24849-0.58497-0.55222zm2.0474-32.668c2.3206-1.7972 6.2027-3.8863 6.5585-3.5293 0.4273 0.42867 0.64805 0.24346-3.1 2.6009-3.0846 1.9401-5.6563 2.6305-3.4586 0.92846zm-0.29249-2.4598c0-0.64156 9.2158-5.4024 10.431-5.3884 0.53691 0.0062-1.4938 1.3266-4.5127 2.9343-5.9209 3.1531-5.918 3.1518-5.918 2.4541zm-46.94 60.877c1.8588 0.84968 2.2655 0.43447 1.4129-1.4427-1.0303-2.2685-2.4081-2.4887-3.9946-0.63841-1.7261 2.0132-1.7842 2.9699-0.12631 2.0798 0.9302-0.49943 1.6132-0.4991 2.7079 0.00133zm83.44-1.4817c0.78216-2.0449-1.3843-2.7299-3.2568-1.0298-1.5684 1.424-1.3172 1.963 0.91505 1.963 1.2747 0 2.1125-0.33389 2.3418-0.93325zm-74.068-11.494c1.557-1.562-2.0101-2.9593-4.8065-1.8828-0.72824 0.28036-0.50976 0.59272 0.97584 1.3952 2.3772 1.2841 2.9624 1.3586 3.8306 0.48757zm-38.604-38.057c1.1525-2.3369 1.1528-2.3688 0.02682-2.9734-1.0462-0.56172-4.5793-0.22799-4.5793 0.43254 0 0.83041 2.6969 4.9031 3.2468 4.9031 0.07738 0 0.66493-1.063 1.3057-2.3622zm11.517 0.04813c1.0261-1.9907 0.44282-2.6888-1.7792-2.1293-1.3934 0.35086-1.4098 0.41531-0.5367 2.1092 1.1121 2.1576 1.2136 2.1584 2.3159 0.02005zm-18.654-10.597c1.1266 0 1.0514-2.019-0.11114-2.987-0.7993-0.6655-1.0632-0.61532-1.7549 0.33374-1.144 1.5695-1.074 3.4657 0.11114 3.0095 0.50891-0.19592 1.2986-0.35621 1.7549-0.35621zm106.12-9.8856c0-1.6493-5.3554-3.8793-8.4475-3.5175-2.7488 0.32165-2.4168 1.4823 0.55169 1.9289 1.4764 0.22211 3.6594 0.76338 4.8513 1.2028 2.6351 0.97155 3.0445 1.0234 3.0445 0.38578zm-100.68-4.5702c-0.36509-0.44134-1.5918-0.80242-2.7261-0.80242-2.0623 0-2.0623 0-0.07462 1.3778 2.1424 1.485 4.1619 1.0701 2.8007-0.57536zm59.813-21.783c4.5347-4.9751 7.4046-10.335 9.1878-17.16 1.469-5.6226 2.7704-5.5202 3.1394 0.24707 0.33392 5.2201 1.288 6.8831 8.0391 14.012 6.0094 6.3456 7.7085 4.1509 4.4126-5.6993-1.4655-4.3798-2.0368-11.499-0.92281-11.499 0.29678 0 0.85455 0.99032 1.2395 2.2007 3.1819 10.005 7.5804 12.326 7.5804 3.9999 0-4.4123 0.40135-4.7388 2.0474-1.6658 1.4986 2.7978 10.562 7.6587 11.857 6.3594 0.77435-0.77686-1.6478-5.1289-4.6659-8.3836-3.9996-4.3132-5.1438-6.648-5.1438-10.496 0-1.6645-0.32498-2.9977-0.82711-3.3933-0.60576-0.47718-0.74239-1.4761-0.51054-3.7325 0.48824-4.7519 1.7348-3.5861 1.4909 1.3942-0.05958 1.2165-0.02559 1.2119 1.3664-0.1846 0.78515-0.78769 1.2744-1.6807 1.0872-1.9845-0.4167-0.67641 0.95533-4.6535 1.6054-4.6535 0.70577 0 0.56066 2.8072-0.16848 3.2593-0.34976 0.21686-0.50602 0.89266-0.34725 1.5018s0.07474 1.1075-0.18675 1.1075c-0.48929 0-0.38957 0.73873 0.71294 5.2817 1.4113 5.8155 4.7815 9.8993 10.127 12.272 3.5919 1.594 3.8374 1.555 3.1245-0.4966-0.90372-2.6008-0.33679-10.685 1.2711-18.125 1.3396-6.1984 1.3688-6.681 0.43633-7.2045-1.4165-0.7953-0.70173-2.4601 0.72694-1.693 3.1409 1.6864 11.53-0.22921 13.981-3.1927 0.66529-0.80422 0.56043-0.92606-0.79701-0.92606-6.8148 0-10.613-8.1904-10.844-23.382-0.01321-0.87101-0.44989-1.4879-1.1908-1.6823-2.2422-0.58824-1.1426-1.1758 2.825-1.5095 5.1478-0.43297 9.3808-2.0588 5.5556-2.1338-2.6389-0.05175-6.0408-2.3014-6.0408-3.9946 0-0.66918 0.38699-0.5199 1.4707 0.56733 2.0191 2.0257 8.9862 3.1608 9.9361 1.6189 0.19884-0.32277 0.09191-0.58686-0.23761-0.58686-1.734 0-4.7205-3.7676-5.9523-7.5089-0.94604-2.8734-1.985-4.6311-3.8514-6.5164-3.0828-3.1138-3.5385-2.9172-1.8922 0.81646 1.5291 3.4679 1.3398 8.3889-0.39809 10.348-2.4409 2.7521-9.6046 4.6668-9.6046 2.5671 0-0.55142 0.55505-0.88029 1.4857-0.88029 6.4928 0 9.3882-5.8265 6.1215-12.319-2.4775-4.9238-3.2367-5.1903-8.2206-2.8857-3.943 1.8233-7.3981 1.4441-6.0963-0.66912 0.15529-0.25207-0.04834-0.59205-0.45252-0.75552s0.28451-0.31807 1.5304-0.34355c2.0461-0.04185 2.1876 0.04807 1.4624 0.92939-0.94854 1.1528-0.86305 1.1209 4.5929-1.7138 2.8472-1.4793 4.517-2.7606 5.1185-3.9273 1.3636-2.6454 1.102-2.7032-1.5118-0.33412-2.5775 2.3361-5.5425 3.8258-7.6146 3.8258-0.8278 0-0.05373-0.61584 2.1844-1.7378 3.3956-1.7023 7.7946-5.5403 7.1226-6.2144-0.18679-0.18739-1.7482 0.44209-3.4698 1.3988-2.0826 1.1574-5.6753 2.2736-10.735 3.3352-9.6456 2.0239-11.573 2.8119-13.811 5.6477-2.2008 2.7877-3.8308 3.677-8.4172 4.5926-5.2206 1.0422-7.897 1.8986-7.897 2.5271 0 0.505 1.731 0.41258 4.0948-0.21862 0.49378-0.13186 0.87745 0.1506 0.87745 0.64597 0 0.55767-0.91113 1.0829-2.4861 1.4331-2.9607 0.65839-3.168 1.6564-1.1699 5.6315 1.4697 2.9238 2.9312 3.1708 12.16 2.0544 5.4991-0.66522 7.8264 1.8146 7.4796 7.9702-0.33455 5.9399-2.9357 8.3258-12.035 11.039-4.1014 1.2229-4.241 1.3254-4.241 3.1148 0 1.2067-0.54472 2.4207-1.566 3.4902-2.2886 2.3964-1.3113 2.6359 3.3193 0.8133 3.2161-1.2659 4.1786-1.9264 4.4629-3.0628 0.36247-1.4489 0.36247-1.4489 1.6443-0.24078 1.6264 1.5328 4.085 1.548 5.5937 0.03442 1.6536-1.659 1.453-2.8963-0.58497-3.6091-2.2402-0.78345-2.2243-0.86349 0.66109-3.3413 8.1274-6.9792 3.6643-20.657-5.5887-17.128-2.502 0.95433-9.1116 1.4512-9.1116 0.68491 0-0.36734 0.54383-0.6679 1.2085-0.6679s3.5523-0.55882 6.4168-1.2418c11.805-2.8147 18.684 10.498 9.7132 18.797-1.5056 1.3928-1.5117 1.4302-0.36788 2.234 4.2002 2.9514-2.9519 9.1211-7.6496 6.5988-0.7515-0.4035-1.1315-0.40855-1.1315-0.01507 0 0.32583-0.85551 1.0244-1.9011 1.5524s-2.8225 1.8314-3.9485 2.8965c-3.4787 3.2904-8.4238 4.4462-21.351 4.9906-11.149 0.4695-16.522 1.3817-19.512 3.3126-2.5009 1.6149 4.4564 6.9816 12.403 9.5672 2.2499 0.73206 2.2499 0.73206 0.2107 2.8686-2.3248 2.4358-3.5902 4.7501-4.2164 7.7117-0.96828 4.5792-4.9073 9.4886-9.7304 12.127-1.968 1.0768-1.968 1.0768 1.9425 1.2494 6.4213 0.28351 13.015-1.8244 16.71-5.3418 1.9011-1.81 1.9011-1.81 1.9011 1.1625 0 2.9432 1.5035 12.807 2.0996 13.775 0.51354 0.8336 1.1198 0.5804 2.6623-1.1118zm-0.64855-3.171c-0.09008-4.6981 4.8342-19.959 6.9775-21.624 0.20776-0.16139 0.98616-1.2976 1.7298-2.525s1.4893-2.0939 1.657-1.9256-0.13975 0.98694-0.68332 1.8192c-1.7609 2.6962-5.5353 12.627-6.8184 17.939-1.2111 5.0146-2.8195 8.5632-2.8626 6.3156zm22.299-1.9416c-4.6359-6.8299-6.1672-21.631-3.0804-29.776 0.78229-2.0643 2.169-2.9466 1.5737-1.0014-3.2012 10.46-2.54 20.353 1.9648 29.397 1.8883 3.791 1.6551 4.4937-0.45804 1.3805zm21.842-5.7182c-3.8479-2.0462-9.9019-10.623-10.503-14.88-0.13402-0.94863-0.42409-2.9592-0.6446-4.4678-0.41177-2.8173 0.06204-6.9443 0.79613-6.9346 0.22672 0.00299 0.45865 1.9176 0.51539 4.2547 0.10116 4.1666 0.8526 7.7845 2.1015 10.118 0.34551 0.64554 1.2902 2.4507 2.0993 4.0114s2.7903 3.9954 4.4026 5.4103c2.9108 2.5545 3.4665 3.6758 1.233 2.4881zm-14.08-1.7288c-1.237-2.3999-1.9333-12.432-0.90705-13.068 0.46363-0.28746 0.663 0.69382 0.66908 3.293 0.00475 2.0364 0.40542 5.3912 0.89038 7.4552 1.0156 4.3225 0.79115 5.1209-0.65241 2.3203zm-45.289 0.9509c0-0.24572 1.1624-1.6935 2.5831-3.2173s3.3004-4.192 4.177-5.9294c1.9403-3.8454 2.9465-4.7662 8.0198-7.3385 3.8902-1.9724 4.8232-2.6342 9.3239-6.6129 2.5319-2.2382 3.7599-2.0405 1.6068 0.25878-2.4257 2.5904-7.138 5.9379-11.419 8.1116-3.872 1.9662-4.2797 2.3654-6.423 6.2879-2.8067 5.1367-7.869 10.566-7.869 8.4398zm66.771-8.491c-4.166-6.768-5.7622-23.486-2.1081-22.079 0.60535 0.23305 0.85296-0.09219 0.85296-1.1204 0-1.8166 1.0349-1.8995 1.4804-0.11852 0.50596 2.0224-1.1361 5.6382-1.9213 4.2306-0.87248-1.5641-1.539 2.9884-1.0063 6.8738 0.46152 3.3665 2.8283 10.761 3.8331 11.976 0.35726 0.43188 0.53349 1.1242 0.3916 1.5385-0.15204 0.44394-0.77718-0.0902-1.5223-1.3007zm-31.088-10.492c0-2.767 1.7339-6.4188 2.4436-5.1466 0.41115 0.73706 0.31173 1.4325-0.34955 2.445-0.50826 0.77822-0.92412 2.0844-0.92412 2.9027s-0.26323 1.4878-0.58496 1.4878-0.58497-0.76001-0.58497-1.6889zm3.5098 0.11671c0-2.0362 1.2635-5.5366 1.9194-5.3173 0.78006 0.26086 0.77208 0.50478-0.12465 3.8085-0.89859 3.3106-1.7947 4.0639-1.7947 1.5088zm-9.9444-0.70338c0-0.92879 0.39486-2.0175 0.87745-2.4193s0.87745-1.3584 0.87745-2.1258 0.26324-1.3953 0.58497-1.3953c0.92311 0 0.68113 3.8842-0.29248 4.6948-0.4826 0.40182-0.87745 1.2264-0.87745 1.8324s-0.26324 1.1019-0.58497 1.1019-0.58497-0.75992-0.58497-1.6887zm13.811 0.76591c-0.19413-0.50754-0.0397-1.4979 0.3432-2.2007s0.62534-2.0042 0.53878-2.8918c-0.19944-2.0451 0.95187-2.1198 1.4585-0.09454 0.69105 2.7623-1.4516 7.5109-2.3405 5.187zm3.5426 0.53156c-0.5172-0.51887-0.42478-4.2968 0.1406-5.7473 0.2866-0.73526 0.4607 0.16455 0.48257 2.4941 0.03561 3.7924 0.01607 3.8944-0.62317 3.2531zm-22.01-1.4692c0.03871-1.3005 5.2432-6.6577 5.2318-5.3854-0.00531 0.59607-1.1899 2.2272-2.6324 3.6248s-2.6122 2.1898-2.5995 1.7606zm-4.0995-3.3132c-0.0385-1.6045 1.2169-2.9718 3.3405-3.6381 1.209-0.37935 2.7788-1.3805 3.4884-2.2248 1.5954-1.8981 2.3825-1.3568 1.0326 0.71018-0.57711 0.88364-1.9177 1.7638-3.2238 2.1166-1.2616 0.34082-2.7551 1.3021-3.4275 2.2061-0.65541 0.88116-1.2 1.2546-1.2102 0.82996zm37.698-1.8915c-0.42197-0.68497 1.5256-5.8402 2.2076-5.8436 0.66225-0.00332 0.52672 2.3112-0.26375 4.5043-0.72406 2.0088-1.2909 2.3994-1.9439 1.3393zm-50.586-2.3386c-1.7695-0.27066-4.8625-0.68052-6.8734-0.9108s-3.656-0.64459-3.656-0.92068c0-0.70115 4.5208-0.62122 7.2082 0.12745 5.7685 1.607 15.177 0.90816 20.145-1.4963 3.9095-1.8921 5.234-1.884 2.1875 0.01329-4.7972 2.9877-12.201 4.2288-19.011 3.187zm60.43-3.3605c0.0339-1.2104-0.16597-2.6989-0.44414-3.3078-0.84274-1.8447 1.0228-0.81452 1.938 1.0702 0.59993 1.2355 0.63887 1.9806 0.15878 3.0376-0.9431 2.0766-1.7226 1.6992-1.6526-0.80007zm-32.547-2.8854c-0.90021-0.90311-0.24855-2.6356 1.9499-5.1839 1.507-1.7469 2.3399-2.3616 2.3399-1.727 0 0.54187-0.76886 1.8637-1.7086 2.9375-1.1429 1.3059-1.6045 2.3517-1.3942 3.1585 0.30245 1.1603-0.37742 1.6271-1.187 0.81495zm4.7285-0.53114c-0.85157-0.86754-0.4217-2.743 1.0237-4.4664 0.80433-0.95897 1.4624-2.135 1.4624-2.6135s0.26323-0.70668 0.58496-0.5072c0.95771 0.59381 0.67261 1.8594-0.81966 3.6386-0.77255 0.92109-1.4964 2.2868-1.6087 3.035s-0.40145 1.1592-0.64275 0.91336zm31.149-1.1316c-0.94063-1.0045-1.1111-1.4613-0.54069-1.4487 0.88462 0.01959 3.2932 2.9158 2.4249 2.9158-0.28067 0-1.1285-0.66021-1.8842-1.4671zm-28.078-0.4959c0-0.75691 0.52647-1.8542 1.1699-2.4384s1.1699-1.6659 1.1699-2.4038 0.26323-1.5048 0.58496-1.7042c1.0967-0.67996 0.6072 3.6279-0.58496 5.1484-0.64347 0.82067-1.1699 1.7806-1.1699 2.1331s-0.26323 0.64101-0.58496 0.64101-0.58497-0.61929-0.58497-1.3762zm30.418-0.09096c-0.75563-0.80693-1.1106-1.4671-0.7889-1.4671s1.2032 0.66021 1.9588 1.4671 1.1106 1.4671 0.78891 1.4671-1.2032-0.66021-1.9588-1.4671zm-26.323 0.11401c0-0.42145 0.67444-1.6758 1.4988-2.7876 1.2426-1.6758 1.4387-2.4322 1.1476-4.425-0.25863-1.7704-0.11513-2.6002 0.54462-3.1495 0.64837-0.53984 0.79869-1.3548 0.54427-2.951-0.1938-1.2159-0.09461-2.3645 0.22109-2.5602 0.92589-0.57409 1.3514 4.4389 0.49087 5.7827-0.42223 0.65935-0.63732 2.1278-0.4908 3.3507 0.20116 1.6789-0.12122 2.7817-1.4091 4.8201-1.6885 2.6727-2.5473 3.3199-2.5473 1.9197zm28.956-0.31453c-2.959-1.815-4.8885-5.7288-3.9866-8.0867 0.62222-1.6267 1.3542-0.74604 1.3542 1.6292 0 2.8459 3.3768 6.6782 6.2703 7.1162 1.6267 0.24623 1.6267 0.24623-0.12819 0.33196-0.9652 0.04715-2.5446-0.39865-3.5098-0.99068zm-23.439-2.587c0.21186-1.049 0.58474-3.2945 0.82863-4.99s0.7585-3.3989 1.1436-3.7852 0.70019-1.2943 0.70019-2.0176 0.26324-1.4784 0.58497-1.6778c0.95398-0.5915 0.67745 3.4209-0.33578 4.8722-0.61984 0.88779-0.79412 1.8972-0.53327 3.0887s0.08068 2.2396-0.54167 3.1926c-0.51103 0.78245-0.92915 1.8281-0.92915 2.3236s-0.29311 0.90093-0.65136 0.90093c-0.4239 0-0.51684-0.66603-0.26616-1.9073zm4.0519-1.4671c0.19942-1.2104 0.36548-2.7557 0.36902-3.4341s0.81922-2.0866 1.8126-3.1295c1.3696-1.4378 1.7204-2.239 1.4513-3.3147-0.38701-1.547 0.64922-2.0064 1.2112-0.53705 0.52955 1.3844-0.20925 3.4636-1.8693 5.2606-1.0273 1.112-1.4182 2.053-1.2002 2.8886 0.35136 1.3463-0.77937 4.4669-1.6186 4.4669-0.2853 0-0.35555-0.99032-0.15613-2.2007zm4.284 0.64458c-0.68417-0.68639-0.436-4.7763 0.33927-5.5909 1.3614-1.4306 2.1618-3.9818 1.8072-5.7606-0.46533-2.3341 0.74605-2.3372 1.257-0.00318 0.51859 2.3688-0.10764 4.932-1.5177 6.2122-0.80282 0.72888-1.0626 1.514-0.84534 2.555 0.32855 1.5744-0.35524 3.2749-1.0404 2.5875zm14.225-0.49786c-0.40622-0.49105-0.46956-0.88028-0.14325-0.88028 0.32173 0 0.91266 0.39612 1.3132 0.88028 0.40622 0.49104 0.46957 0.88028 0.14326 0.88028-0.32174 0-0.91267-0.39613-1.3132-0.88028zm-10.529-2.3128c0-0.78788 0.26323-1.5957 0.58497-1.7952s0.58496-1.1174 0.58496-2.0397 0.31386-1.782 0.69746-1.9103c0.42042-0.1406 0.69746-1.4421 0.69746-3.2766 0-3.0174 0.49136-3.902 1.1748-2.1151 0.61298 1.6026 0.38825 4.0837-0.47718 5.2683-0.46047 0.63028-0.69926 1.8092-0.53454 2.6392 0.189 0.9523-0.04109 1.7821-0.63016 2.2726-0.51033 0.42491-0.92788 1.1363-0.92788 1.581s-0.26323 0.80843-0.58496 0.80843-0.58497-0.64463-0.58497-1.4325zm4.0948-2.1968c0-0.70501 0.55871-2.4397 1.2416-3.8549 0.88558-1.8353 1.1531-3.2345 0.93311-4.8801-0.35165-2.6302 0.23982-3.0173 1.2412-0.81237 0.94151 2.073 0.84833 4.6758-0.19858 5.5475-0.4826 0.40181-0.87745 1.0417-0.87745 1.422 0 1.0234-1.3939 3.8498-1.9011 3.8551-0.2413 0.00252-0.43873-0.57225-0.43873-1.2773zm-12.093-11.389c-0.19641-0.51349 0.0419-1.7731 0.52959-2.7991 0.72061-1.516 0.76926-2.4406 0.25971-4.9362-0.47311-2.317-0.45502-3.2433 0.07373-3.7737 0.54434-0.5461 0.70073-0.31574 0.70073 1.0321 0 0.9543 0.24786 2.6021 0.55081 3.6619 0.93865 3.2834-1.0338 9.6405-2.1146 6.815zm3.0406-2.1474c0.24385-0.72623 0.44337-2.1127 0.44337-3.081s-0.19952-2.3548-0.44337-3.081c-0.76011-2.2638 0.51899-1.4316 1.5366 0.99963 0.8981 2.1458 0.8981 2.4536 0 4.3763-1.0652 2.2806-2.2402 2.8816-1.5366 0.78601zm3.1383 0.62149c-0.15939-0.44768-0.28511-6.9302-0.13441-6.9302 0.69454 0 1.9124 3.776 1.609 4.9888-0.31495 1.2589-1.27 2.5162-1.4746 1.9414zm-8.7099-1.9073c0-0.4651 0.27586-1.0167 0.61303-1.2257 0.37681-0.23364 0.46392-1.3777 0.22606-2.9689-0.23867-1.5968-0.16229-2.5888 0.19932-2.5888 0.97211 0 1.4456 4.1026 0.68589 5.9427-0.7359 1.7824-1.7243 2.2643-1.7243 0.8408zm-2.0682-0.98306c0.24697-0.76945 0.42282-2.4553 0.39076-3.7464-0.05828-2.3474-0.05828-2.3474 0.87089-0.65197 1.0414 1.9001 0.52888 5.0484-0.89953 5.5261-0.61594 0.20598-0.7031-0.06543-0.36212-1.1277zm13.774-0.21702c-0.53159-0.6426-0.57423-1.6076-0.16206-3.6678 0.50704-2.5346 0.61161-2.668 1.119-1.4275 0.55975 1.3684 0.55975 1.3684 1.2478-0.14671 0.78759-1.7342 1.4264-1.894 2.4798-0.6206 1.0038 1.2134 0.2607 1.8195-0.98457 0.80302-0.87153-0.71142-0.95608-0.69636-0.65323 0.1163 0.4184 1.1227-0.37997 2.582-1.4237 2.6022-0.45343 0.00879-0.70877 0.65024-0.64241 1.6139 0.12669 1.8398 0.01073 1.9258-0.98074 0.72725zm-16.119-9.7325c-0.21278-0.34539-0.95221-0.85682-1.6432-1.1365-1.1994-0.4855-1.1888-0.51022 0.23535-0.54573 1.4471-0.03609 2.8956 0.8847 2.8956 1.8407 0 0.68465-1.0364 0.57425-1.4878-0.1585zm1.423-1.5042c-0.89561-1.0826-0.20948-1.7609 0.87114-0.86119 0.64814 0.53965 0.89644 0.52555 1.1109-0.06309 0.18633-0.5113 0.48091-0.56703 0.90499-0.1712 0.43758 0.40843 0.19872 0.79041-0.78568 1.2564-1.1202 0.53023-1.5573 0.49676-2.1014-0.1609zm-15.683-0.09651c-0.02539-0.41887-0.7427-1.4092-1.594-2.2007s-1.292-1.4391-0.97942-1.4391c0.98055 0 3.2525 2.8129 2.9286 3.6259-0.24744 0.62105-0.31818 0.62382-0.35517 0.01393zm30.957-0.15658c0-0.34361 0.75818-1.2648 1.6849-2.047 1.6604-1.4017 2.7864-3.7836 1.7885-3.7836-0.28151 0-0.34857-0.42685-0.14902-0.94855 0.3063-0.80077 0.17272-0.84649-0.85735-0.29343-1.5163 0.8141-3.8331 0.8614-3.3445 0.06827 0.19884-0.32277-0.06439-0.58686-0.58497-0.58686s-0.7838-0.26409-0.58496-0.58685-0.04886-0.58686-0.55044-0.58686c-1.7693 0-0.87959-1.1332 1.836-2.3382 4.2496-1.8859 6.784 0.51356 6.4778 6.133-0.18449 3.3864-5.716 8.1962-5.716 4.9702zm-29.248-4.5362c0-0.31015 0.42521-0.91794 0.94492-1.3506 0.81751-0.68067 0.9161-0.63757 0.73121 0.31965-0.22032 1.1406-1.6761 2.0361-1.6761 1.031zm2.7298-1.0989c-0.87603-0.87886-0.4296-2.1329 0.48747-1.3693 0.4826 0.40181 0.87745 0.96232 0.87745 1.2456 0 0.6077-0.80938 0.68109-1.3649 0.12376zm2.305-0.53704c-0.54913-1.4356-0.43007-1.6253 0.52238-0.83229 0.97243 0.80966 1.1642 1.7606 0.35507 1.7606-0.28731 0-0.68217-0.41773-0.87745-0.92828zm1.9848-0.95709c0-1.1238 2.4855-1.7176 4.2027-1.004 1.4736 0.61237 2.0127 0.57828 3.3456-0.21159 1.2003-0.71134 2.2955-0.83933 4.4786-0.52341 2.8898 0.41819 2.8898 0.41819 0.95607 1.2257-1.4278 0.59629-2.1052 0.63552-2.5892 0.14994s-0.88174-0.46937-1.5203 0.06199c-0.91659 0.76269-8.8735 1.0329-8.8735 0.30138zm3.9115-2.2904c-0.61047-0.35623-2.3486-0.46954-4.0948-0.26695-2.5641 0.2975-2.8647 0.23707-1.941-0.39018 3.0323-2.059 3.6113-2.7561 2.7574-3.3199-1.2505-0.82561 2.6354-2.9925 5.3714-2.9952 1.7325-0.00173 2.6682 0.44674 4.3872 2.1028 1.8424 1.7749 1.9786 2.0596 0.86885 1.8155-0.72389-0.15922-1.3162-0.03813-1.3162 0.2691 0 2.1669-3.9596 3.9947-6.0329 2.7849zm4.298-2.3171c0.86399-1.6196-0.20142-2.8968-2.4165-2.8968-1.8776 0-4.1624 3.1344-2.7133 3.7222 1.8956 0.76895 4.5031 0.34936 5.1298-0.82547zm-3.9183-0.29536c-0.19349-0.50585-0.05361-1.2189 0.31084-1.5845 0.49354-0.49514 0.66493-0.44763 0.6716 0.18616 0.00765 0.72654 0.0896 0.72297 0.5606-0.02444 0.42239-0.67026 0.71263-0.71388 1.2386-0.18616 0.96835 0.97148 0.21505 2.5287-1.2232 2.5287-0.66366 0-1.365-0.41388-1.5584-0.91973zm-54.775 78.888c-0.47905-0.76074-1.0478-1.9774-1.2638-2.7036-0.56753-1.9077 0.7336-1.6648 1.5719 0.29343 0.9102 2.1262 0.86811 2.0825 1.5795 1.6414 0.39577-0.24539 0.16152-1.0034-0.65074-2.1055-1.4867-2.0173-0.86932-3.2296 0.67289-1.3214 0.57583 0.71251 1.1796 1.1623 1.3418 0.99964 0.2585-0.25933-3.8104-6.9109-5.4426-8.8972-0.42786-0.52069-0.3839-0.72672 0.15148-0.70997 0.41485 0.01298 1.9388 1.6187 3.3866 3.5682 1.7726 2.3869 2.6959 3.2324 2.8269 2.5888 0.24374-1.1971-4.295-6.2336-6.4697-7.1792-0.89206-0.38788-1.6219-0.98207-1.6219-1.3204s-0.67362-0.61518-1.4969-0.61518c-0.849 0-1.3404-0.25401-1.1354-0.58685 0.60243-0.9779 2.9714-0.6585 4.0591 0.54727 0.56269 0.62378 1.3334 1.0147 1.7126 0.86869s1.1229 0.466 1.6525 1.36c2.1308 3.5968 4.2832 5.066 5.0259 3.4307 0.56798-1.2506 0.49925-1.5004-0.50047-1.8187-1.2131-0.38626-3.2581-3.0332-2.7428-3.5501 0.16405-0.16457 1.139 0.41044 2.1664 1.2778 1.6601 1.4014 1.9658 1.4791 2.7451 0.69729 1.012-1.0152-5.3537-3.8594-7.1179-3.1802-0.5058 0.19472-1.5268-0.0451-2.269-0.53294s-1.7305-0.74026-2.1963-0.56093c-1.6408 0.63167-4.9813-1.2178-3.5691-1.976 0.93588-0.50249 1.3631-0.45317 1.9215 0.22179 0.77369 0.93524 3.2371 1.182 3.7348 0.37408 0.74497-1.2093-3.6208-4.3726-5.5113-3.9933-1.3247 0.2658-1.7708 0.16543-1.5984-0.35964 0.13149-0.40058 0.87654-0.81671 1.6557-0.92474 2.3544-0.32642 2.5329-1.0162 1.1488-4.4374-1.7913-4.4277-1.1141-5.5814 0.79276-1.3507 0.8925 1.9802 1.793 3.2452 2.1517 3.0227 0.40846-0.25325 0.32679-0.70978-0.24172-1.3512-0.78973-0.89103-2.7274-6.539-2.7274-7.9498 0-1.3445 1.6111 1.2824 2.3019 3.7534 0.80559 2.8814 2.1048 4.6948 3.3634 4.6948 0.59199 0 0.49353-0.426-0.37302-1.6138-1.1892-1.6301-3.5374-7.8499-3.5374-9.3695 0-1.6868 1.1172-0.03689 2.5858 3.8188 1.8866 4.9532 3.0227 6.6338 4.1826 6.1872 0.78759-0.30321 0.78886-0.44982 0.01131-1.3118-1.1595-1.2854-3.6439-6.8874-4.1558-9.3708-0.6807-3.3024 0.87987-1.9209 2.3118 2.0466 1.6468 4.5627 3.6854 7.8528 4.8659 7.8528 0.76812 0 0.71823-0.23184-0.28412-1.3204-0.99115-1.0764-3.0829-5.2064-3.0829-6.0869 0-0.86612 1.1521 0.07225 1.7092 1.3921 0.66231 1.5692 3.8132 5.4284 4.4321 5.4284 0.16944 0-0.33293-1.0187-1.1164-2.2637s-3.4618-6.1966-5.9519-11.004c-3.53-6.8142-5.3443-9.6-8.2348-12.644-5.3218-5.6043-5.4476-11.326-0.30033-13.655 1.8881-0.85418 3.6126-2.8505 3.6126-4.1821 0-0.1462-0.74891-0.26582-1.6642-0.26582s-2.1367-0.5237-2.7212-1.1716c-1.2869-1.4266-2.1722-0.86378-3.8588 2.4528-1.6289 3.2032-1.8554 2.841-1.6185-2.5877 0.23485-5.3805-0.61488-6.4674-3.205-4.0996-0.6952 0.63551-1.9822 1.5221-2.8601 1.9702-1.5961 0.81472-1.5961 0.81472 0.14374 3.4458 1.762 2.6645 2.228 4.9031 1.1588 5.566-0.32233 0.19986-0.83256-0.28707-1.1338-1.0821-0.73413-1.9371-1.7899-2.5312-1.7899-1.0072 0 1.8317-0.64201 1.4421-3.4006-2.0638-2.6219-3.3321-3.619-3.606-3.619-0.99417 0 0.84316-0.42064 1.9993-0.93475 2.5692-1.2172 1.3493-0.75049 2.0022 2.6764 3.7443 1.5558 0.79093 2.9489 1.7762 3.0958 2.1896s0.50038 0.53161 0.78551 0.26285c0.29186-0.2751-0.31625-1.2368-1.3916-2.2007-1.092-0.97882-1.5525-1.7121-1.0753-1.7121 0.93961 0 4.0867 3.4929 3.5932 3.988-0.61693 0.61892-7.647 0.61005-9.2738-0.01169-2.2691-0.86722-4.2365 0.77477-2.2234 1.8556 1.3575 0.72885 1.7064 3.4402 0.58719 4.563-0.65867 0.66079-0.26028 1.9291 0.60596 1.9291 0.25899 0 1.2006-1.0563 2.0924-2.3474 1.833-2.6536 3.4496-3.0046 5.6386-1.2242 1.7258 1.4037 1.0622 2.2702-0.75873 0.99066-2.3477-1.6497-2.4502-1.014-0.23326 1.4478 2.5032 2.7797 2.7482 5.486 0.50696 5.5995-0.70458 0.0357-2.1068 0.76193-3.116 1.6139-1.2011 1.0139-2.5266 1.549-3.8374 1.549-2.1821 0-2.528 0.59248-1.0596 1.815 1.1339 0.94412 4.3557 0.75133 6.5388-0.39128 1.8486-0.96753 3.6326-1.0903 3.6326-0.25006 0 0.32277-0.60778 0.58686-1.3506 0.58686s-1.8616 0.38773-2.4861 0.86162-1.7936 0.87805-2.5979 0.89813c-2.4764 0.06182-0.10645 0.98103 3.8023 1.4748 3.3316 0.42082 3.4207 0.47304 1.7549 1.0284-3.3309 1.1105-5.5572 4.114-5.5572 7.4972 0 1.8419 0 1.8419 1.7998 0.32257 2.1477-1.813 5.3185-2.0128 8.4173-0.53033 2.332 1.1156 2.5808 1.7027 0.9428 2.2242-1.2567 0.40016-5.5632 4.9446-5.1133 5.3959 0.15832 0.15883 0.81957 0.0033 1.4694-0.34562 1.8535-0.99518 3.3655-0.75521 5.2466 0.83274 0.95589 0.80692 2.4897 1.485 3.4084 1.5069 1.62 0.03852 1.6309 0.05887 0.36085 0.67359-1.067 0.51643-1.8677 0.34339-4.3216-0.93388-1.7779-0.9254-3.4674-1.4228-4.1234-1.2139-2.3421 0.74574 6.0998 6.0615 9.7546 6.1423 1.7549 0.03883 1.7549 0.03883-0.39164 1.1764-2.0764 1.1004-4.5806 3.9296-4.5806 5.1751 0 0.363 0.64848 0.2688 1.6087-0.2337 1.8486-0.96745 5.7536-1.1303 6.2884-0.26224 0.22211 0.36054-0.73661 0.58686-2.486 0.58686-2.7138 0-5.5935 1.2233-4.4759 1.9014 0.29003 0.17599 2.4658 0.89666 4.835 1.6015 4.3077 1.2815 4.3077 1.2815 2.7799 2.8813-2.445 2.5602-0.22006 4.1804 2.3781 1.7317 1.6356-1.5415 2.5588-0.97037 1.0805 0.6684-1.5284 1.6943-3.0969 2.0043-4.7251 0.93401-1.2795-0.84107-1.4338-0.84474-1.4338-0.03415 0 1.012 2.2439 2.053 4.4253 2.053 1.6037 0 2.9783 1.2492 4.5208 4.108 0.7325 1.3576 1.2344 1.7585 1.6631 1.3284s0.35122-1.0334-0.25695-1.9992zm-9.7673-26.325c1.1558-0.74936 3.094-0.74936 2.6324 0-0.19884 0.32277-1.0699 0.58281-1.9357 0.57787-1.2312-0.00703-1.383-0.13292-0.69668-0.57787zm-0.30719-2.3713c-0.20693-0.3359-0.88055-0.45015-1.4969-0.25388-1.3432 0.42768-1.5356-0.77306-0.20595-1.285 1.1749-0.45229 3.9444 0.79662 3.471 1.5652-0.46719 0.75836-1.2922 0.74606-1.7681-0.02637zm-2.6007-3.4754c-0.47328-0.29967-0.6976-0.70829-0.4985-0.90804 0.45452-0.45598 4.5763 0.28861 4.5763 0.8267 0 0.62368-3.1229 0.68596-4.0778 0.08134zm1.4455-2.771c-3.6823-0.32181-5.2019-0.77627-4.6033-1.3768 0.67694-0.67913 6.4725 0.19134 7.3879 1.1096 0.36672 0.3679 0.41669 0.62452 0.11105 0.57027s-1.6087-0.19067-2.8956-0.30314zm-16.672-1.8547c0-1.7582 4.5192-3.4875 7.2906-2.7897 2.5136 0.63292 1.6481 1.2316-1.7805 1.2316-2.4339 0-3.4549 0.26131-4.013 1.027-0.79923 1.0966-1.497 1.3441-1.497 0.5311zm13.597-2.2414c-0.87425-0.3536-0.38631-1.3707 0.65757-1.3707 0.40212 0 1.2421 0.38773 1.8666 0.86162 1.202 0.91209-0.6195 1.2794-2.5242 0.50906zm1.9048-1.7662c-3.1062-0.38889-4.3872-0.78744-4.3872-1.365 0-0.81723 5.3839-0.01685 6.4137 0.95348 0.47111 0.44387 0.60273 0.76747 0.29248 0.71911s-1.3538-0.1868-2.319-0.30763zm-5.8373-4.2792c-0.68521-1.1123-0.07727-1.2397 3.2618-0.68362 1.7383 0.28948 2.6011 0.55721 1.9174 0.59494s-2.0337 0.22725-3.0001 0.42115c-1.0667 0.21403-1.9229 0.08339-2.1791-0.33247zm2.9125-2.7693c-3.4986-0.30575-4.9722-0.72427-4.9722-1.4122 0-0.58335 5.1261-0.29601 7.7508 0.43446 1.1606 0.32301 1.4139 1.4322 0.29248 1.2809-0.40216-0.05426-1.7841-0.19067-3.0711-0.30314zm-5.2259-4.2331c-1.7786-0.69876-0.04225-1.3976 2.1691-0.87303 1.0378 0.2462 2.2159 0.38623 2.6181 0.31119s0.7312 0.13921 0.7312 0.47613c0 0.69689-3.812 0.7561-5.5184 0.08571zm4.4654-7.8065c-0.80864-0.81126-0.95953-4.5775-0.18338-4.5775 0.28521 0 0.64284 0.72624 0.79472 1.6139s0.47315 2.076 0.71394 2.6408c0.50126 1.1759-0.28424 1.3672-1.3253 0.32277zm1.6088-1.6979c-0.71454-1.3394-0.29589-4.0533 0.62527-4.0533 0.3156 0 0.57382 0.54376 0.57382 1.2084s0.26324 1.0451 0.58497 0.84565c0.66787-0.4141 0.71808 0.02873 0.21627 1.9073-0.441 1.6509-1.1513 1.6836-2.0003 0.09205zm5.5383-10.576c1.7006-1.342 2.7259-1.1089 1.5222 0.34615-0.40698 0.49196-1.2697 0.89447-1.9172 0.89447-1.0551 0-1.0141-0.1287 0.39492-1.2406zm-7.5754-3.4657c0.48439-2.324 2.6513-5.0875 2.6513-3.3812 0 0.53683-0.26324 1.1393-0.58497 1.3388s-0.58497 0.84295-0.58497 1.4299-0.42908 1.4245-0.95352 1.8611c-0.86059 0.71653-0.91204 0.59483-0.52781-1.2486zm57.277 29.771c0.8903-0.65311 0.9322-0.97828 0.30425-2.3609-0.64941-1.4299-2.1259 0.4993-2.2743 2.9716-0.02383 0.3969 1.0504 0.06387 1.97-0.61071zm-13.638-1.2428c1.4698-0.44757 4.8918-1.9476 7.6046-3.3334 4.6674-2.3843 5.2522-2.5328 10.89-2.7662 4.653-0.19257 6.0336-0.44356 6.3022-1.1457 1.082-2.8287-7.3758-2.6212-14.619 0.35851-16.455 6.7695-22.502 5.7529-22.502-3.7828 0-3.8448-0.05949-4.0008-2.3645-6.2006-3.7773-3.6049-6.1815-2.8875-4.0922 1.2211 0.67371 1.3248 1.192 3.486 1.192 4.9702 0 8.4094 8.3646 13.488 17.589 10.679zm17.392-2.5479c0.64032-1.9041 0.6381-1.9073-1.3486-1.9073s-1.99 0-0.70078 1.9834c0.70909 1.0909 1.316 1.9492 1.3486 1.9073s0.34802-0.9344 0.70078-1.9834zm2.1962 0.97586c0.21617-0.35089 0.13534-0.89651-0.17962-1.2125-0.37356-0.37477-0.68253-0.15296-0.88871 0.63799-0.33214 1.2742 0.39604 1.6658 1.0683 0.5745zm3.1858-2.0029c0.62186-0.75171 0.45098-0.88028-1.1699-0.88028s-1.7918 0.12857-1.1699 0.88028c0.40052 0.48416 0.92699 0.88029 1.1699 0.88029s0.76941-0.39613 1.1699-0.88029zm-10.529-7.9226c0-1.9562-0.19499-2.3474-1.1699-2.3474-1.3687 0-1.3971 0.16671-0.46745 2.7459 0.94637 2.6256 1.6374 2.4574 1.6374-0.39848zm12.869 0.71743c0-2.0662-1.9107-3.1226-3.2924-1.8203-1.3118 1.2364-1.4795 1.2619-2.377 0.36153s-1.0159-0.89964-1.6788 0.00983c-0.59789 0.82031-0.96 0.8657-2.2397 0.28075-1.2605-0.5762-1.5265-0.55057-1.5265 0.14709 0 0.65596 1.1444 0.88858 5.1184 1.0404 2.8152 0.10758 5.3159 0.2499 5.5572 0.31627s0.43872-0.08464 0.43872-0.3356zm-86.094-2.0789c0.41112-2.1417-0.36924-3.0304-1.6444-1.8727-0.66138 0.60048-1.6369 0.90292-2.3277 0.72168-1.7255-0.45269-1.4578 0.56688 0.41949 1.5976 1.9953 1.0955 3.2877 0.93303 3.5526-0.44658zm78.116-0.69255c0.24591-0.6429-0.07203-0.88029-1.179-0.88029-1.281 0-1.4029 0.13633-0.78746 0.88029 0.40052 0.48415 0.93105 0.88028 1.179 0.88028s0.60227-0.39613 0.78747-0.88028zm4.4682-0.58686c0.61543-0.74395 0.49348-0.88028-0.78747-0.88028-1.1069 0-1.4249 0.23738-1.179 0.88028 0.18519 0.48416 0.53955 0.88028 0.78746 0.88028s0.77846-0.39612 1.179-0.88028zm-79.069-12.525c0.2131-1.51-0.746-1.4426-4.1426 0.29091-2.286 1.1667-2.0072 1.4677 1.1699 1.2632 2.4066-0.15492 2.8046-0.36299 2.9727-1.5541zm26.305-4.2502c0.12022-1.4345-0.19622-2.5425-1.0042-3.5162-1.1798-1.4217-1.1798-1.4217-1.1992 0.36818-0.01071 0.98445-0.30708 2.0785-0.65862 2.4311-0.90277 0.90569 0.42332 3.2415 1.7023 2.9985 0.66049-0.12549 1.042-0.87593 1.1598-2.2815zm-15.222-2.037c2.3111-1.624 0.37199-3.1944-3.9443-3.1944-4.1601 0-4.5052 0.58851-1.3881 2.3671 3.4134 1.9477 3.6794 1.9889 5.3324 0.82734z"/>
 </g>
</svg>
